<svg id="visual" viewBox="0 0 900 600" width="900" height="600" xmlns="http://www.w3.org/2000/svg" xmlns:xlink="http://www.w3.org/1999/xlink" version="1.1"><rect x="0" y="0" width="900" height="600" fill="#001220"></rect><defs><linearGradient id="grad1_0" x1="33.3%" y1="0%" x2="100%" y2="100%"><stop offset="20%" stop-color="#fbae3c" stop-opacity="1"></stop><stop offset="80%" stop-color="#fbae3c" stop-opacity="1"></stop></linearGradient></defs><defs><linearGradient id="grad1_1" x1="33.3%" y1="0%" x2="100%" y2="100%"><stop offset="20%" stop-color="#fbae3c" stop-opacity="1"></stop><stop offset="80%" stop-color="#e1685e" stop-opacity="1"></stop></linearGradient></defs><defs><linearGradient id="grad1_2" x1="33.3%" y1="0%" x2="100%" y2="100%"><stop offset="20%" stop-color="#96446e" stop-opacity="1"></stop><stop offset="80%" stop-color="#e1685e" stop-opacity="1"></stop></linearGradient></defs><defs><linearGradient id="grad1_3" x1="33.3%" y1="0%" x2="100%" y2="100%"><stop offset="20%" stop-color="#96446e" stop-opacity="1"></stop><stop offset="80%" stop-color="#3d3056" stop-opacity="1"></stop></linearGradient></defs><defs><linearGradient id="grad1_4" x1="33.3%" y1="0%" x2="100%" y2="100%"><stop offset="20%" stop-color="#001220" stop-opacity="1"></stop><stop offset="80%" stop-color="#3d3056" stop-opacity="1"></stop></linearGradient></defs><defs><linearGradient id="grad2_0" x1="0%" y1="0%" x2="66.7%" y2="100%"><stop offset="20%" stop-color="#fbae3c" stop-opacity="1"></stop><stop offset="80%" stop-color="#fbae3c" stop-opacity="1"></stop></linearGradient></defs><defs><linearGradient id="grad2_1" x1="0%" y1="0%" x2="66.7%" y2="100%"><stop offset="20%" stop-color="#e1685e" stop-opacity="1"></stop><stop offset="80%" stop-color="#fbae3c" stop-opacity="1"></stop></linearGradient></defs><defs><linearGradient id="grad2_2" x1="0%" y1="0%" x2="66.7%" y2="100%"><stop offset="20%" stop-color="#e1685e" stop-opacity="1"></stop><stop offset="80%" stop-color="#96446e" stop-opacity="1"></stop></linearGradient></defs><defs><linearGradient id="grad2_3" x1="0%" y1="0%" x2="66.7%" y2="100%"><stop offset="20%" stop-color="#3d3056" stop-opacity="1"></stop><stop offset="80%" stop-color="#96446e" stop-opacity="1"></stop></linearGradient></defs><defs><linearGradient id="grad2_4" x1="0%" y1="0%" x2="66.7%" y2="100%"><stop offset="20%" stop-color="#3d3056" stop-opacity="1"></stop><stop offset="80%" stop-color="#001220" stop-opacity="1"></stop></linearGradient></defs><g transform="translate(900, 0)"><path d="M0 243.4C-40.2 233.4 -80.5 223.4 -118 204.4C-155.5 185.3 -190.3 157.3 -210.8 121.7C-231.2 86.1 -237.3 43.1 -243.4 0L0 0Z" fill="#18223c"></path><path d="M0 194.7C-32.2 186.7 -64.4 178.7 -94.4 163.5C-124.4 148.3 -152.3 125.8 -168.6 97.3C-185 68.9 -189.8 34.4 -194.7 0L0 0Z" fill="#683a67"></path><path d="M0 146C-24.1 140 -48.3 134 -70.8 122.6C-93.3 111.2 -114.2 94.4 -126.5 73C-138.7 51.7 -142.4 25.8 -146 0L0 0Z" fill="#c0526a"></path><path d="M0 97.3C-16.1 93.4 -32.2 89.4 -47.2 81.8C-62.2 74.1 -76.1 62.9 -84.3 48.7C-92.5 34.4 -94.9 17.2 -97.3 0L0 0Z" fill="#f6884d"></path><path d="M0 48.7C-8 46.7 -16.1 44.7 -23.6 40.9C-31.1 37.1 -38.1 31.5 -42.2 24.3C-46.2 17.2 -47.5 8.6 -48.7 0L0 0Z" fill="#fbae3c"></path></g><g transform="translate(0, 600)"><path d="M0 -243.4C41.3 -235.2 82.6 -227.1 120 -207.8C157.4 -188.6 190.9 -158.2 210.8 -121.7C230.7 -85.2 237 -42.6 243.4 0L0 0Z" fill="#18223c"></path><path d="M0 -194.7C33 -188.2 66.1 -181.7 96 -166.3C125.9 -150.9 152.7 -126.5 168.6 -97.3C184.5 -68.2 189.6 -34.1 194.7 0L0 0Z" fill="#683a67"></path><path d="M0 -146C24.8 -141.1 49.6 -136.3 72 -124.7C94.4 -113.1 114.5 -94.9 126.5 -73C138.4 -51.1 142.2 -25.6 146 0L0 0Z" fill="#c0526a"></path><path d="M0 -97.3C16.5 -94.1 33 -90.8 48 -83.1C63 -75.4 76.3 -63.3 84.3 -48.7C92.3 -34.1 94.8 -17 97.3 0L0 0Z" fill="#f6884d"></path><path d="M0 -48.7C8.3 -47 16.5 -45.4 24 -41.6C31.5 -37.7 38.2 -31.6 42.2 -24.3C46.1 -17 47.4 -8.5 48.7 0L0 0Z" fill="#fbae3c"></path></g></svg>