<svg id="visual" viewBox="0 0 960 540" width="960" height="540" xmlns="http://www.w3.org/2000/svg" xmlns:xlink="http://www.w3.org/1999/xlink" version="1.1"><rect x="0" y="0" width="960" height="540" fill="#001220"></rect><path d="M0 58L32 59.5C64 61 128 64 192 66.5C256 69 320 71 384 68.3C448 65.7 512 58.3 576 58.3C640 58.3 704 65.7 768 68.7C832 71.7 896 70.3 928 69.7L960 69L960 0L928 0C896 0 832 0 768 0C704 0 640 0 576 0C512 0 448 0 384 0C320 0 256 0 192 0C128 0 64 0 32 0L0 0Z" fill="#fa7268"></path><path d="M0 44L32 43.3C64 42.7 128 41.3 192 44.3C256 47.3 320 54.7 384 54.2C448 53.7 512 45.3 576 40.5C640 35.7 704 34.3 768 33.8C832 33.3 896 33.7 928 33.8L960 34L960 0L928 0C896 0 832 0 768 0C704 0 640 0 576 0C512 0 448 0 384 0C320 0 256 0 192 0C128 0 64 0 32 0L0 0Z" fill="#e34c67"></path><path d="M0 38L32 36.7C64 35.3 128 32.7 192 28.5C256 24.3 320 18.7 384 19C448 19.3 512 25.7 576 27.7C640 29.7 704 27.3 768 27.8C832 28.3 896 31.7 928 33.3L960 35L960 0L928 0C896 0 832 0 768 0C704 0 640 0 576 0C512 0 448 0 384 0C320 0 256 0 192 0C128 0 64 0 32 0L0 0Z" fill="#c62368"></path></svg>