<?xml version="1.0" encoding="UTF-8"?>
<svg id="Layer_1" data-name="Layer 1" xmlns="http://www.w3.org/2000/svg" xmlns:xlink="http://www.w3.org/1999/xlink" viewBox="0 0 724.33 1080">
  <defs>
    <style>
      .cls-1 {
        mask: url(#mask);
      }

      .cls-2 {
        filter: url(#luminosity-noclip);
      }

      .cls-3 {
        fill: #a3c4c6;
      }

      .cls-4 {
        filter: url(#luminosity-noclip-3);
      }

      .cls-5 {
        filter: url(#luminosity-noclip-5);
      }

      .cls-6 {
        fill: url(#radial-gradient-7);
      }

      .cls-7 {
        fill: url(#radial-gradient-6);
      }

      .cls-8 {
        fill: url(#radial-gradient-5);
      }

      .cls-9 {
        fill: url(#radial-gradient-4);
      }

      .cls-10 {
        fill: url(#radial-gradient-9);
      }

      .cls-11 {
        fill: url(#radial-gradient-8);
      }

      .cls-12 {
        fill: url(#radial-gradient-3);
      }

      .cls-13 {
        fill: url(#radial-gradient-2);
      }

      .cls-14 {
        fill: url(#linear-gradient-8);
      }

      .cls-15 {
        fill: url(#linear-gradient-5);
      }

      .cls-16 {
        fill: url(#linear-gradient-6);
      }

      .cls-17 {
        fill: url(#linear-gradient-4);
      }

      .cls-18 {
        fill: url(#linear-gradient-3);
      }

      .cls-19 {
        fill: url(#linear-gradient-2);
      }

      .cls-20 {
        fill: url(#linear-gradient-9);
      }

      .cls-20, .cls-21, .cls-22 {
        mix-blend-mode: multiply;
      }

      .cls-21 {
        fill: url(#linear-gradient-7);
      }

      .cls-23 {
        fill: url(#radial-gradient);
      }

      .cls-24 {
        fill: url(#linear-gradient);
      }

      .cls-25 {
        fill: #2e515f;
      }

      .cls-26 {
        opacity: .65;
      }

      .cls-26, .cls-27 {
        fill: #fff;
      }

      .cls-28 {
        mask: url(#mask-2);
      }

      .cls-29 {
        mask: url(#mask-3);
      }

      .cls-30 {
        mask: url(#mask-4);
      }

      .cls-31 {
        mask: url(#mask-5);
      }

      .cls-32 {
        mask: url(#mask-1);
      }

      .cls-22 {
        fill: url(#linear-gradient-11);
      }

      .cls-33 {
        fill: #c9c9c9;
      }

      .cls-34 {
        fill: #5394af;
      }

      .cls-35 {
        fill: url(#radial-gradient-10);
      }

      .cls-36 {
        fill: #7fc343;
      }

      .cls-37 {
        fill: url(#linear-gradient-10);
      }

      .cls-38 {
        fill: url(#linear-gradient-12);
      }

      .cls-39 {
        fill: #e6e6e5;
      }

      .cls-40 {
        fill: #447a90;
      }

      .cls-41 {
        fill: #9399a4;
      }

      .cls-42 {
        fill: #989898;
      }

      .cls-43 {
        fill: #4a4e53;
      }

      .cls-44 {
        fill: #9dbbbc;
      }
    </style>
    <linearGradient id="linear-gradient" x1="898.37" y1="244.96" x2="975.54" y2="244.96" gradientTransform="translate(-552.83 -3.22) rotate(26.77)" gradientUnits="userSpaceOnUse">
      <stop offset="0" stop-color="#839d9e"/>
      <stop offset="1" stop-color="#99b7b8"/>
    </linearGradient>
    <radialGradient id="radial-gradient" cx="507.69" cy="553.41" fx="507.69" fy="553.41" r="38.2" gradientTransform="translate(-259.45 53.22) rotate(14.4)" gradientUnits="userSpaceOnUse">
      <stop offset="0" stop-color="#fff"/>
      <stop offset="1" stop-color="#cde1ef"/>
    </radialGradient>
    <radialGradient id="radial-gradient-2" cx="541.64" cy="631.8" fx="541.64" fy="631.8" r="58.02" xlink:href="#radial-gradient"/>
    <radialGradient id="radial-gradient-3" cx="-716.22" cy="623.82" fx="-716.22" fy="623.82" r="75.88" gradientTransform="translate(946.76 520.2) rotate(7.18)" gradientUnits="userSpaceOnUse">
      <stop offset="0" stop-color="#fff"/>
      <stop offset="1" stop-color="#c0dcee"/>
    </radialGradient>
    <linearGradient id="linear-gradient-2" x1="-686.34" y1="572.32" x2="-617.94" y2="572.32" gradientTransform="translate(946.76 520.2) rotate(7.18)" gradientUnits="userSpaceOnUse">
      <stop offset="0" stop-color="#7fc343"/>
      <stop offset="1" stop-color="#529944"/>
    </linearGradient>
    <radialGradient id="radial-gradient-4" cx="-665.77" cy="514.06" fx="-665.77" fy="514.06" r="34.2" xlink:href="#radial-gradient-3"/>
    <radialGradient id="radial-gradient-5" cx="-746.1" cy="585.65" fx="-746.1" fy="585.65" r="60.65" xlink:href="#radial-gradient-3"/>
    <linearGradient id="linear-gradient-3" x1="2888.98" y1="1828.43" x2="2985.79" y2="1828.43" gradientTransform="translate(1291.48 -2423.27) rotate(75.29)" xlink:href="#linear-gradient"/>
    <radialGradient id="radial-gradient-6" cx="1603.81" cy="331.74" fx="1603.81" fy="331.74" r="75.88" gradientTransform="translate(2075.08 520.2) rotate(172.82) scale(1 -1)" xlink:href="#radial-gradient-3"/>
    <linearGradient id="linear-gradient-4" x1="1633.7" y1="280.24" x2="1702.1" y2="280.24" gradientTransform="translate(2075.08 520.2) rotate(172.82) scale(1 -1)" xlink:href="#linear-gradient-2"/>
    <radialGradient id="radial-gradient-7" cx="1654.27" cy="221.99" fx="1654.27" fy="221.99" r="34.2" gradientTransform="translate(2075.08 520.2) rotate(172.82) scale(1 -1)" xlink:href="#radial-gradient-3"/>
    <radialGradient id="radial-gradient-8" cx="1573.93" cy="293.57" fx="1573.93" fy="293.57" r="60.65" gradientTransform="translate(2075.08 520.2) rotate(172.82) scale(1 -1)" xlink:href="#radial-gradient-3"/>
    <linearGradient id="linear-gradient-5" x1="3482.68" y1="-433.2" x2="3579.49" y2="-433.2" gradientTransform="translate(1730.36 -2423.27) rotate(104.71) scale(1 -1)" xlink:href="#linear-gradient"/>
    <linearGradient id="linear-gradient-6" x1="-280.83" y1="839.84" x2="-203.66" y2="839.84" gradientTransform="translate(-43.57 -3.22) rotate(153.23) scale(1 -1)" xlink:href="#linear-gradient"/>
    <radialGradient id="radial-gradient-9" cx="-771.51" cy="881.87" fx="-771.51" fy="881.87" r="38.2" gradientTransform="translate(-336.95 53.22) rotate(165.6) scale(1 -1)" xlink:href="#radial-gradient"/>
    <radialGradient id="radial-gradient-10" cx="-737.56" cy="960.25" fx="-737.56" fy="960.25" r="58.02" gradientTransform="translate(-336.95 53.22) rotate(165.6) scale(1 -1)" xlink:href="#radial-gradient"/>
    <filter id="luminosity-noclip" x="287.51" y="539.72" width="57.24" height="20.66" color-interpolation-filters="sRGB" filterUnits="userSpaceOnUse">
      <feFlood flood-color="#fff" result="bg"/>
      <feBlend in="SourceGraphic" in2="bg"/>
    </filter>
    <filter id="luminosity-noclip-2" x="287.51" y="-8732" width="57.24" height="32766" color-interpolation-filters="sRGB" filterUnits="userSpaceOnUse">
      <feFlood flood-color="#fff" result="bg"/>
      <feBlend in="SourceGraphic" in2="bg"/>
    </filter>
    <mask id="mask-1" x="287.51" y="-8732" width="57.24" height="32766" maskUnits="userSpaceOnUse"/>
    <linearGradient id="linear-gradient-7" x1="353.55" y1="530.43" x2="357.89" y2="554.46" gradientTransform="translate(-22.81 -6.39) rotate(1.75)" gradientUnits="userSpaceOnUse">
      <stop offset="0" stop-color="#fff"/>
      <stop offset=".47" stop-color="#868686"/>
      <stop offset="1" stop-color="#000"/>
    </linearGradient>
    <mask id="mask" x="287.51" y="539.72" width="57.24" height="20.66" maskUnits="userSpaceOnUse">
      <g class="cls-2">
        <g class="cls-32">
          <path class="cls-21" d="M287.51,539.72s11.28,4.27,16.1,13.55c2.09,1.59,2.68.86,6.32-.43,3.64-1.28,20.37-11.01,34.82-.19-22.89,6.9-32.87,7.99-38.1,7.67-5.22-.31-13.07-9.95-19.14-20.61Z"/>
        </g>
      </g>
    </mask>
    <linearGradient id="linear-gradient-8" x1="353.55" y1="530.43" x2="357.89" y2="554.46" gradientTransform="translate(-22.81 -6.39) rotate(1.75)" gradientUnits="userSpaceOnUse">
      <stop offset="0" stop-color="#141414"/>
      <stop offset=".47" stop-color="#2b2b2b"/>
      <stop offset="1" stop-color="#c5c5c7"/>
    </linearGradient>
    <filter id="luminosity-noclip-3" x="350.55" y="452.61" width="107.21" height="69.41" color-interpolation-filters="sRGB" filterUnits="userSpaceOnUse">
      <feFlood flood-color="#fff" result="bg"/>
      <feBlend in="SourceGraphic" in2="bg"/>
    </filter>
    <filter id="luminosity-noclip-4" x="350.55" y="-8732" width="107.21" height="32766" color-interpolation-filters="sRGB" filterUnits="userSpaceOnUse">
      <feFlood flood-color="#fff" result="bg"/>
      <feBlend in="SourceGraphic" in2="bg"/>
    </filter>
    <mask id="mask-3" x="350.55" y="-8732" width="107.21" height="32766" maskUnits="userSpaceOnUse"/>
    <linearGradient id="linear-gradient-9" x1="402.91" y1="401.96" x2="404.77" y2="509.22" gradientTransform="matrix(1,0,0,1,0,0)" xlink:href="#linear-gradient-7"/>
    <mask id="mask-2" x="350.55" y="452.61" width="107.21" height="69.41" maskUnits="userSpaceOnUse">
      <g class="cls-4">
        <g class="cls-29">
          <path class="cls-20" d="M457.7,461.2c-34.03-19.3-59.23-3.56-107.15,22.02.38,33.32,12.5,38.79,12.5,38.79l82.33-8.4s13.34-16.7,12.32-52.4Z"/>
        </g>
      </g>
    </mask>
    <linearGradient id="linear-gradient-10" x1="402.91" y1="401.96" x2="404.77" y2="509.22" gradientTransform="matrix(1,0,0,1,0,0)" xlink:href="#linear-gradient-8"/>
    <filter id="luminosity-noclip-5" x="232.73" y="457.87" width="84.89" height="59.76" color-interpolation-filters="sRGB" filterUnits="userSpaceOnUse">
      <feFlood flood-color="#fff" result="bg"/>
      <feBlend in="SourceGraphic" in2="bg"/>
    </filter>
    <filter id="luminosity-noclip-6" x="232.73" y="-8732" width="84.89" height="32766" color-interpolation-filters="sRGB" filterUnits="userSpaceOnUse">
      <feFlood flood-color="#fff" result="bg"/>
      <feBlend in="SourceGraphic" in2="bg"/>
    </filter>
    <mask id="mask-5" x="232.73" y="-8732" width="84.89" height="32766" maskUnits="userSpaceOnUse"/>
    <linearGradient id="linear-gradient-11" x1="274" y1="412.74" x2="275.62" y2="506.58" gradientTransform="matrix(1,0,0,1,0,0)" xlink:href="#linear-gradient-7"/>
    <mask id="mask-4" x="232.73" y="457.87" width="84.89" height="59.76" maskUnits="userSpaceOnUse">
      <g class="cls-5">
        <g class="cls-31">
          <path class="cls-22" d="M245.99,457.91c-11.01,2.93-12.26,3.85-12.26,3.85,0,0-6.47,25.61,13.58,55.87l70.31-28.77s-31-32.33-71.63-30.94Z"/>
        </g>
      </g>
    </mask>
    <linearGradient id="linear-gradient-12" x1="274" y1="412.74" x2="275.62" y2="506.58" gradientTransform="matrix(1,0,0,1,0,0)" xlink:href="#linear-gradient-8"/>
  </defs>
  <g>
    <g>
      <path class="cls-3" d="M108.38,749.62s26.09-95.19,148.41-150.92c1.97-15.3-8.68-24.98-19.33-24.41-55.47,15.57-135.67,70.01-172.54,148.81,30.72,18.62,43.46,26.52,43.46,26.52Z"/>
      <path class="cls-24" d="M244.83,578.93s-7.44,24.16-20.85,33.34c-67.44,46.19-83.06,76.4-83.06,76.4,0,0-8.1,27.24-17.76,17.59-9.65-9.66-17.39-19.16-17.52-20.22-.13-1.05,109.87-111.18,139.18-107.11Z"/>
      <path class="cls-3" d="M250.59,583.93s10.16-6.48-8.57-5.14c-7.9.56-91.35,59.91-130.84,121.17-21.89-1.07-20.3-14.69-20.3-14.69,0,0,59.8-90.59,149.52-111.1,12,2.54,11.54,2.99,10.2,9.77Z"/>
      <path class="cls-43" d="M106.76,752.25c-.13-.08-13.08-8.11-43.43-26.5l-2.37-1.44,1.18-2.51c35.9-76.71,114.96-133.77,174.5-150.48l.33-.09.34-.02c3.52-.19,7.09.57,10.32,2.2,7.06,3.56,13.99,12.18,12.25,25.69l-.22,1.7-1.56.71c-62.42,28.44-98.98,67.4-118.66,95.08-21.33,30.01-27.99,53.61-28.05,53.84l-1.09,3.99-3.52-2.18ZM244.83,578.93c-2.17-1.09-4.54-1.63-6.88-1.56-57.5,16.27-133.47,70.92-169.04,144.54,20.24,12.28,32.33,19.68,37.72,23.01,2.77-8.04,10.57-27.68,27.56-51.64,19.95-28.14,56.87-67.63,119.69-96.64.61-9.33-4.17-15.24-9.06-17.7Z"/>
    </g>
    <g>
      <g>
        <path class="cls-23" d="M64.26,692.09c-15.55,15.13-11.55,32.29,3.38,47.64,14.93,15.35,39.64,15.53,55.19.4,15.55-15.13,18.25-32.92,3.32-48.27-14.93-15.35-46.34-14.9-61.89.23Z"/>
        <path class="cls-27" d="M65.48,690.44c-11.25,10.95-13.86,26.16-3.05,37.27,10.81,11.11,34.19,8.45,45.44-2.5,11.25-10.95,13.21-23.83,2.4-34.94-10.81-11.11-33.54-10.79-44.8.17Z"/>
        <path class="cls-43" d="M65.73,741.6c-8.24-8.47-12.9-17.04-13.86-25.47-1.07-9.38,2.48-18.12,10.53-25.96,6.9-6.71,16.9-10.99,28.15-12.05,14.89-1.4,28.92,3.04,37.52,11.88,15.26,15.69,14,35.15-3.37,52.05-6.9,6.71-15.95,10.9-25.47,11.8-12.56,1.18-24.77-3.28-33.5-12.25ZM66.12,694.01c-16.66,16.21-7.33,32.8,3.43,43.86,7.59,7.8,18.22,11.69,29.17,10.66,8.31-.78,16.21-4.45,22.24-10.31,15.2-14.79,16.39-31,3.27-44.49-7.37-7.58-20.09-11.52-33.19-10.28-10.04.95-18.9,4.7-24.93,10.56Z"/>
      </g>
      <g>
        <path class="cls-27" d="M118.37,725.73l-43.04-13.27s-33.01,8.24-52.87,39.33c-25.01,39.15-20.82,54.37-8.05,64.59,2.79,19,11.49,21.66,19.93,24,6.34,11.35,20.19,18.17,26.75,17.61,7.53,14.11,25.75,13.13,35.44,5.64,11.71-9.06.12-20.74,13.58-36.53,16.54,6.09,24.71,1.54,31.04-19.38,6.33-20.91-2.02-61.25-22.78-82Z"/>
        <path class="cls-13" d="M118.37,725.73l-5.64-1.74c12.45,21.59,16.74,50.59,11.69,67.25-6.33,20.92-8.44,19.47-24.98,13.38-13.46,15.79-15.67,25.53-19.36,39.88-1.85,7.19-9.29,12.51-19.57,6.41-.69,2.4-1.53,4.71-2.47,6.9,1.12.19,2.15.25,3.04.18,7.53,14.11,25.75,13.13,35.44,5.64,11.71-9.06.12-20.74,13.58-36.53,16.54,6.09,24.71,1.54,31.04-19.38,6.33-20.91-2.02-61.25-22.78-82Z"/>
        <path class="cls-43" d="M107.81,829.82c-.47-.19-4.74-2.02-11.1-7.9l4.19-4.54c5.55,5.12,9.23,6.71,9.26,6.72l-2.35,5.72Z"/>
        <path class="cls-43" d="M109.77,807.28c-.94,1.39-1.9,2.74-2.85,4.08l-2.85,4.01c-1.9,2.66-3.76,5.32-5.55,8l-1.31,2.03-1.27,2.04-1.2,2.07c-.4.69-.76,1.4-1.13,2.1-.36.71-.71,1.41-1.03,2.13-.18.35-.31.72-.47,1.08-.16.36-.31.72-.44,1.09-.28.73-.53,1.47-.74,2.22-.1.37-.21.75-.3,1.13l-.23,1.14-1.76-.62c.74-.86,1.54-1.68,2.32-2.52.8-.82,1.6-1.64,2.44-2.42-.48,1.05-1,2.07-1.53,3.09-.55,1-1.07,2.02-1.66,2.99l-1.75,2.92v-3.54s-.01-1.31-.01-1.31c.02-.44.06-.87.09-1.31.11-.86.23-1.73.45-2.57.18-.85.44-1.67.71-2.49l.43-1.22.49-1.19c.68-1.57,1.45-3.09,2.3-4.55.85-1.46,1.78-2.87,2.75-4.24,1.96-2.73,4.13-5.29,6.47-7.66.58-.6,1.19-1.17,1.8-1.74.61-.57,1.22-1.14,1.86-1.67,1.26-1.09,2.57-2.13,3.97-3.06Z"/>
        <path class="cls-43" d="M72.22,871.11c-5.98-1.54-10.78-5.02-14.03-10.17-8.27-.56-20.73-7.87-27-18.06-8.09-2.29-17.59-5.8-20.77-25.01-16.12-13.7-13.66-33.51,8.31-67.89,20.29-31.76,64.31-40.42,65.71-40.77l-9.48,6.1c-.32.08-32.09,8.37-51.01,37.99-26.32,41.2-18.3,52.84-8.72,60.52l.95.76.18,1.2c2.54,17.26,9.9,19.31,17.7,21.48l1.24.35.63,1.13c5.98,10.7,18.8,16.46,23.79,16.04l2.03-.17.96,1.8c3.17,5.94,8.21,8.13,11.87,8.91,6.4,1.37,13.83-.3,18.95-4.26,4.54-3.51,4.69-7.24,4.92-12.88.26-6.36.57-14.27,8.2-23.21l1.4-1.64,2.02.74c7.13,2.62,12.17,2.99,15.87,1.14,4.45-2.22,7.99-8.1,11.14-18.51,6.12-20.21-2.16-59.08-22-78.91l-3.42-10.08c10.01,10.01,25.75,30.75,30.15,48.06,4.04,15.88,4.49,31.85,1.19,42.72-3.73,12.32-8.14,19.19-14.3,22.25-4.9,2.44-10.87,2.41-18.65-.14-4.97,6.62-5.2,12.31-5.42,17.82-.24,6.02-.49,12.24-7.31,17.52-6.5,5.03-15.93,7.15-24.03,5.42-.35-.08-.7-.16-1.04-.25Z"/>
        <path class="cls-43" d="M57.07,857.08s.01-.18.04-.52c.03-.38.09-.84.16-1.46.16-1.22.42-2.93.82-4.94.21-1,.43-2.09.72-3.23.28-1.14.57-2.33.93-3.55.33-1.23.73-2.48,1.13-3.74.39-1.27.87-2.53,1.3-3.81.48-1.25.96-2.51,1.44-3.74.52-1.21,1.03-2.41,1.52-3.56.53-1.13,1.05-2.23,1.54-3.27.48-1.04,1.01-1.99,1.46-2.88.46-.88.86-1.71,1.28-2.41.4-.7.75-1.32,1.04-1.83.57-1.01.9-1.59.9-1.59,0,0-.24.62-.66,1.7-.21.54-.46,1.2-.76,1.95-.31.75-.58,1.62-.91,2.55-.31.94-.7,1.94-1.01,3.03-.33,1.08-.67,2.23-1.03,3.41-.31,1.19-.64,2.42-.97,3.67-.28,1.26-.57,2.54-.86,3.81-.24,1.29-.52,2.56-.71,3.83-.2,1.27-.41,2.51-.55,3.72-.17,1.21-.28,2.37-.39,3.48-.11,1.11-.16,2.15-.23,3.11-.1,1.92-.11,3.51-.09,4.61.02.54.03.98.05,1.22.02.28.03.43.03.43h-6.18Z"/>
        <path class="cls-43" d="M30.6,839.68s.01-.18.04-.52c.03-.38.09-.84.16-1.46.16-1.22.42-2.93.82-4.94.21-1,.43-2.09.72-3.23.28-1.14.57-2.33.93-3.55.33-1.23.73-2.48,1.13-3.74.39-1.27.87-2.53,1.3-3.81.48-1.25.97-2.51,1.44-3.74.52-1.21,1.03-2.41,1.52-3.56.53-1.13,1.05-2.23,1.54-3.27.48-1.04,1.01-1.99,1.46-2.88.47-.89.86-1.71,1.28-2.41.4-.7.75-1.32,1.04-1.83.57-1.01.9-1.59.9-1.59,0,0-.24.62-.66,1.7-.21.54-.46,1.2-.76,1.95-.31.74-.58,1.62-.91,2.55-.31.94-.7,1.94-1.02,3.03-.33,1.08-.67,2.23-1.03,3.41-.31,1.19-.64,2.42-.97,3.67-.28,1.26-.57,2.54-.86,3.82-.24,1.29-.52,2.56-.71,3.83-.2,1.27-.41,2.51-.55,3.72-.17,1.21-.28,2.37-.39,3.48-.11,1.11-.16,2.15-.23,3.11-.1,1.92-.11,3.51-.09,4.61.02.54.03.98.05,1.22.02.28.03.43.03.43h-6.18Z"/>
        <path class="cls-43" d="M10.65,819.08s.01-.18.04-.52c.03-.38.08-.84.16-1.46.16-1.22.42-2.93.82-4.94.21-1,.43-2.09.72-3.23.28-1.14.58-2.33.93-3.55.33-1.23.73-2.48,1.13-3.74.39-1.27.87-2.53,1.3-3.81.48-1.25.96-2.51,1.44-3.74.52-1.21,1.03-2.41,1.52-3.56.53-1.13,1.05-2.23,1.54-3.27.48-1.04,1.01-1.99,1.46-2.88.47-.88.86-1.71,1.28-2.41.4-.71.75-1.32,1.03-1.83.57-1.01.9-1.59.9-1.59,0,0-.24.62-.66,1.7-.21.54-.46,1.2-.76,1.95-.31.75-.58,1.62-.91,2.55-.31.94-.7,1.94-1.02,3.03-.33,1.08-.67,2.23-1.03,3.41-.31,1.19-.64,2.42-.97,3.67-.28,1.26-.57,2.54-.86,3.82-.24,1.29-.51,2.56-.71,3.83-.2,1.27-.41,2.51-.55,3.72-.17,1.21-.28,2.37-.39,3.48-.11,1.11-.16,2.15-.23,3.11-.1,1.92-.11,3.51-.09,4.61.02.54.03.98.05,1.22.02.28.03.43.03.43h-6.18Z"/>
      </g>
    </g>
  </g>
  <g>
    <g>
      <g>
        <g>
          <path class="cls-12" d="M68.79,1027.77s-15.53,7.02-13.89,18.22c1.64,11.2,65.91,31.47,100.83,30.91,34.91-.56,92.91-20.06,100.31-22.97,7.41-2.91,11.21-13.79.75-19.92-10.46-6.13-188-6.24-188-6.24Z"/>
          <path class="cls-43" d="M136.95,1078.79h0c-17.06-2.15-37.46-7.07-54.58-13.15-19.4-6.9-29.67-13.36-30.53-19.2-1.95-13.35,14.96-21.16,15.68-21.49l.61-.27h.67c5.91,0,145.19.14,180.87,4.64,5.87.74,7.69,1.44,8.69,2.03,5.45,3.2,8.34,8.08,7.92,13.4-.41,5.24-4.07,10.08-9.1,12.06-7.13,2.8-65.96,22.61-101.4,23.18-5.47.09-11.8-.32-18.83-1.2ZM69.5,1030.86c-2.53,1.29-12.67,6.98-11.55,14.68.19,1.33,5.48,6.8,26.48,14.27,16.72,5.94,36.64,10.75,53.28,12.84,0,0,0,0,0,0,6.74.85,12.78,1.24,17.95,1.15,34.54-.55,92.24-20,99.23-22.76,2.84-1.11,4.98-3.91,5.2-6.79.23-2.95-1.46-5.58-4.89-7.58-.1-.05-1.22-.58-6.34-1.23-34.01-4.28-168.32-4.57-179.38-4.59Z"/>
        </g>
        <g>
          <path class="cls-36" d="M188.72,951.67s-18.27-3.06-22.34,7.35c-4.07,10.41-2.85,15.2-13.86,15.97-11.01.77,26.23,81.14,26.23,81.14,0,0,44.25-4.71,75.35-16.18,12.18-24.91,10.32-43.39,3.84-55.19,7.16-14.26,4.1-27.21-11.66-33.75-15.75-6.53-57.56.66-57.56.66Z"/>
          <path class="cls-19" d="M197.81,974.93s16.23,16.8,45.28,13.07c-11.12,9.01-24.76,10.26-24.76,10.26l19.34,1.85s-17.43,40.44-43.42,52.48c38.62-6.22,61.75-14.14,61.75-14.14,0,0,13.13-37.21,2.18-51.65,3.4-12.92,8.03-22.05-3.4-26.94-11.44-4.89-56.97,15.06-56.97,15.06Z"/>
          <path class="cls-43" d="M176.87,1059.45l-.93-2.01c-.08-.18-8.37-18.09-15.9-36.88-15.73-39.27-12.97-43.95-11.64-46.2.86-1.46,2.25-2.32,3.9-2.44,6.68-.47,7.1-1.79,9.15-8.15.55-1.71,1.18-3.65,2.04-5.87,4.33-11.08,20.11-10,24.85-9.4.13.02.24.03.34.04,4.11-.68,31.18-4.97,49.07-2.72,3.89.49,7.15,1.27,9.71,2.33,7.97,3.3,13.44,8.44,15.83,14.87,2.37,6.36,1.7,13.83-1.9,21.68,4.67,9.41,9.34,28.25-4.52,56.61l-.54,1.11-1.16.43c-31.11,11.48-74.27,16.17-76.09,16.36l-2.2.23ZM153.6,978.01c-.32,2.08.15,10.28,12.38,40.74,5.94,14.78,12.3,28.92,14.64,34.06,9.15-1.11,44.87-5.85,71.24-15.33,12.7-26.72,7.6-43.53,3.37-51.23l-.78-1.42.73-1.45c3.42-6.8,4.22-13.1,2.32-18.2-1.8-4.84-5.97-8.64-12.4-11.31-2.04-.85-4.77-1.49-8.11-1.91-18.09-2.28-47.45,2.71-47.74,2.76l-.52.09-.52-.09s-.25-.04-.63-.09c-1.58-.2-15.49-1.73-18.32,5.52-.8,2.04-1.39,3.89-1.92,5.51-2.12,6.58-3.67,11.39-13.75,12.34Z"/>
        </g>
        <g>
          <path class="cls-27" d="M255.22,941.27c1.16-15.67-5.63-24.56-20.56-26.11l-21.74-2.43s-20.57-5.24-24.69,20.95c-4.12,26.2-11.45,23-1.3,32,10.15,9.01,43.73,20.97,65.37,4.88,7.04-10.76,1.77-13.63,2.93-29.3Z"/>
          <path class="cls-9" d="M224.5,932.95s4.72,7.21-.31,14.29c-5.02,7.07-30.75,16.96-40.57,11.94,18.43,28.9,75.26,22.45,73.02,4.11-2.24-18.34,1.57-40.22-10.21-44.17-11.77-3.95-30.18-2.5-30.18-2.5l8.25,16.34Z"/>
          <path class="cls-43" d="M217.65,980.98c-13.89-1.75-26.58-7.48-32.78-12.98-7.07-6.27-7.18-8.58-4.58-15.73,1.33-3.66,3.33-9.2,4.89-19.06,1.52-9.64,5.32-16.52,11.3-20.46,8-5.27,16.84-3.1,17.21-3.01l-1.51,5.99c-.07-.02-6.67-1.57-12.35,2.22-4.43,2.95-7.31,8.41-8.53,16.22-1.65,10.44-3.77,16.32-5.18,20.2-.8,2.19-1.37,3.78-1.18,4.52.26,1.01,2.2,2.84,4.06,4.49,9.18,8.14,40.85,19.53,61.03,5.03,3.48-5.49,3.17-8.21,2.56-13.49-.39-3.44-.88-7.72-.43-13.87,1.05-14.19-4.61-21.44-17.8-22.81l.64-6.15c16.53,1.71,24.62,11.89,23.32,29.41-.41,5.57.02,9.37.4,12.71.66,5.8,1.19,10.38-3.83,18.05l-.3.46-.44.33c-10.58,7.87-24.02,9.5-36.48,7.94Z"/>
        </g>
        <path class="cls-43" d="M196.82,929.52s.72.57,2,1.52c.64.47,1.43,1.03,2.33,1.66.9.63,1.95,1.3,3.07,2.03,1.14.7,2.39,1.44,3.73,2.17,1.33.74,2.79,1.4,4.28,2.08,1.52.62,3.09,1.24,4.72,1.7.81.26,1.65.41,2.48.63.84.14,1.68.35,2.52.41,1.69.26,3.39.22,5.05.17.41-.04.82-.1,1.24-.14.41-.05.82-.06,1.22-.16.8-.18,1.61-.28,2.37-.53.77-.22,1.53-.42,2.25-.72.73-.27,1.45-.51,2.11-.87,1.36-.61,2.58-1.35,3.73-2,.55-.37,1.08-.73,1.58-1.07.52-.32.98-.67,1.41-1.01.85-.68,1.66-1.22,2.24-1.76,1.2-1.04,1.93-1.62,1.93-1.62,0,0-.49.77-1.42,2.1-.44.68-1.09,1.41-1.83,2.27-.7.9-1.68,1.74-2.69,2.72-1.09.89-2.27,1.89-3.7,2.7-.68.46-1.44.83-2.22,1.22-.76.43-1.6.71-2.45,1.03-1.7.63-3.56,1.02-5.46,1.25-1.9.16-3.86.2-5.78-.07-.97-.09-1.9-.32-2.85-.49-.92-.24-1.85-.47-2.74-.78-.44-.16-.89-.31-1.33-.46-.43-.17-.85-.36-1.28-.53-.85-.34-1.65-.76-2.44-1.16-1.56-.83-3.01-1.73-4.32-2.66-1.33-.9-2.5-1.87-3.55-2.78-2.1-1.83-3.65-3.55-4.67-4.8-1.02-1.25-1.52-2.03-1.52-2.03Z"/>
        <g>
          <path class="cls-8" d="M197.59,1053.55s-40.32,13.26-92.81-.05c-52.49-13.31-43.87-23.88-43.87-23.88,0,0,10.05-83.68,79.86-71.07,48.14,6.92,55.59,64.37,55.59,64.37,0,0,4.61,15.53,1.24,30.64Z"/>
          <path class="cls-27" d="M165.54,1041.55s-30.77,10.12-70.81-.04c-40.05-10.16-33.47-18.22-33.47-18.22,0,0,7.67-63.84,60.93-54.22,36.73,5.28,42.41,49.11,42.41,49.11,0,0,3.52,11.85.95,23.37Z"/>
          <path class="cls-43" d="M127.74,1060.98c-7.96-1-15.95-2.51-23.72-4.48-28.13-7.13-43.72-14.75-46.33-22.65-.7-2.11-.39-3.98.23-5.25.77-5.53,6.74-42.27,32.13-62.1,13.94-10.89,31.2-14.6,51.21-11,20.69,2.99,37.32,15.58,48.1,36.41,7.57,14.63,9.74,28.32,10.03,30.37.6,2.14,4.54,17.09,1.22,31.95l-.38,1.71-1.67.55c-1.2.39-29.96,9.64-70.82,4.49ZM63.47,1031.35c-.01.13,0,.47.31,1.06,1.38,2.6,8.2,9.58,41.76,18.09,7.53,1.91,15.26,3.37,22.98,4.34,34,4.28,59.74-1.88,66.42-3.73,2.45-13.55-1.5-27.18-1.54-27.32l-.1-.48c-.02-.14-1.92-14.15-9.5-28.73-9.97-19.17-24.59-30.27-43.46-32.98l-.11-.02c-18.23-3.29-33.84,0-46.36,9.78-24.92,19.46-29.84,58.23-29.88,58.61l-.11.89-.39.48Z"/>
        </g>
      </g>
      <g>
        <path class="cls-44" d="M237.58,940.13s2.54-32.26,3.02-35.4c.48-3.14,93.47-64.17,93.47-64.17,0,0,3.6-12.02-16.67-24.25-34.6,27.98-106.07,70.24-105.84,72.81.23,2.57-7.02,44.41-7.02,44.41,0,0,20.82,9.31,33.04,6.6Z"/>
        <path class="cls-3" d="M220.91,893.64c-.22-2.53,70.64-44.37,104.36-71.61-2.41-2.06-5.02-4.01-7.86-5.72-34.6,27.98-106.07,70.24-105.84,72.81.23,2.57-7.02,44.41-7.02,44.41,0,0,4,1.79,9.51,3.57,1.07-6.22,7.06-41.12,6.85-43.46Z"/>
        <path class="cls-18" d="M240.6,904.74c.48-3.14,93.47-64.17,93.47-64.17,0,0,4.55-9.55-13.51-22.18,11.29,11.88,3.77,13.74,3.77,13.74,0,0-92.99,61.03-93.47,64.17-.48,3.14-3.02,35.4-3.02,35.4-6.55,1.45-15.56-.55-22.52-2.71-.48,2.8-.78,4.55-.78,4.55,0,0,17.33,12.44,33.04,6.6,0,0,2.54-32.26,3.02-35.4Z"/>
        <path class="cls-43" d="M201.91,934.44l.02-1.36c2.71-15.64,7-41.37,6.99-43.81-.26-2.99,108.27-76.18,108.27-76.18l1.59.96c20.81,12.55,17.39,24.56,17.77,25.56l.92,2.4-2.37,1c-30.05,18.39-87.37,56.83-91.73,60.21-.53,4.69-2.36,27.09-3.02,35.48l-1.39,1.32-4.75,2.05c-12.93,2.87-29.86-5.71-30.75-6.1l-1.55-1.51ZM214.19,889.6c-.31,4.98-4.47,29.54-6.68,42.3,7.75,8.6,18.65,10,27.59,5.95.57-7.24,2.62-33.61,3.04-36.37.29-1.89,87.8-60.36,92.43-62.32-2.76-5.93,1.62-10.08-12.97-19.6,0,0-101.55,67.27-103.41,70.04Z"/>
      </g>
    </g>
    <g>
      <g>
        <g>
          <path class="cls-7" d="M614.87,1027.77s15.53,7.02,13.89,18.22c-1.64,11.2-65.91,31.47-100.83,30.91-34.91-.56-92.91-20.06-100.31-22.97-7.41-2.91-11.21-13.79-.75-19.92,10.46-6.13,188-6.24,188-6.24Z"/>
          <path class="cls-43" d="M527.88,1079.99c-35.43-.57-94.27-20.38-101.4-23.18-5.04-1.98-8.69-6.83-9.1-12.06-.42-5.32,2.47-10.2,7.92-13.4,1-.59,2.82-1.29,8.69-2.03,35.68-4.49,174.96-4.63,180.87-4.64h.67s.61.27.61.27c.72.33,17.63,8.14,15.68,21.49-.86,5.84-11.13,12.3-30.53,19.2-17.11,6.08-37.52,11-54.58,13.15h0c-7.02.88-13.36,1.29-18.83,1.2ZM434.77,1035.45c-5.12.64-6.24,1.18-6.34,1.23-3.43,2.01-5.12,4.63-4.89,7.58.23,2.89,2.36,5.68,5.2,6.79,7,2.75,64.7,22.2,99.23,22.76,5.18.08,11.22-.3,17.95-1.15,0,0,0,0,0,0,16.64-2.1,36.56-6.9,53.28-12.84,21.01-7.47,26.29-12.94,26.48-14.27,1.12-7.7-9.02-13.4-11.55-14.68-11.07.02-145.38.3-179.38,4.59Z"/>
        </g>
        <g>
          <path class="cls-36" d="M494.93,951.67s18.27-3.06,22.34,7.35c4.07,10.41,2.85,15.2,13.86,15.97,11.01.77-26.23,81.14-26.23,81.14,0,0-44.25-4.71-75.35-16.18-12.18-24.91-10.32-43.39-3.84-55.19-7.16-14.26-4.1-27.21,11.66-33.75,15.75-6.53,57.56.66,57.56.66Z"/>
          <path class="cls-17" d="M485.85,974.93s-16.23,16.8-45.28,13.07c11.12,9.01,24.76,10.26,24.76,10.26l-19.34,1.85s17.43,40.44,43.42,52.48c-38.62-6.22-61.75-14.14-61.75-14.14,0,0-13.13-37.21-2.18-51.65-3.4-12.92-8.03-22.05,3.4-26.94,11.44-4.89,56.97,15.06,56.97,15.06Z"/>
          <path class="cls-43" d="M504.58,1059.21c-1.82-.19-44.99-4.88-76.09-16.36l-1.16-.43-.54-1.11c-13.86-28.35-9.19-47.19-4.52-56.61-3.6-7.85-4.27-15.32-1.9-21.68,2.39-6.42,7.86-11.56,15.83-14.87,2.55-1.06,5.82-1.84,9.71-2.33,17.89-2.25,44.96,2.04,49.07,2.72.1-.01.21-.03.34-.04,4.73-.6,20.52-1.68,24.85,9.4.87,2.21,1.49,4.15,2.04,5.87,2.05,6.35,2.47,7.68,9.15,8.15,1.66.12,3.04.98,3.9,2.44,1.33,2.25,4.09,6.93-11.64,46.2-7.53,18.79-15.81,36.7-15.9,36.88l-.93,2.01-2.2-.23ZM516.31,965.67c-.52-1.63-1.12-3.47-1.92-5.51-2.83-7.25-16.74-5.71-18.32-5.52-.38.05-.61.08-.63.09l-.52.09-.52-.09c-.29-.05-29.65-5.04-47.74-2.76-3.34.42-6.07,1.06-8.11,1.91-6.43,2.67-10.6,6.47-12.4,11.31-1.9,5.1-1.09,11.39,2.32,18.2l.73,1.45-.78,1.42c-4.23,7.7-9.33,24.51,3.37,51.23,26.37,9.48,62.09,14.22,71.24,15.33,2.34-5.13,8.7-19.28,14.64-34.06,12.24-30.47,12.71-38.66,12.38-40.74-10.07-.96-11.62-5.76-13.75-12.34Z"/>
        </g>
        <g>
          <path class="cls-27" d="M428.43,941.27c-1.16-15.67,5.63-24.56,20.56-26.11l21.74-2.43s20.57-5.24,24.69,20.95c4.12,26.2,11.45,23,1.3,32-10.15,9.01-43.73,20.97-65.37,4.88-7.04-10.76-1.77-13.63-2.93-29.3Z"/>
          <path class="cls-6" d="M459.15,932.95s-4.72,7.21.31,14.29c5.02,7.07,30.75,16.96,40.57,11.94-18.43,28.9-75.26,22.45-73.02,4.11,2.24-18.34-1.57-40.22,10.21-44.17,11.77-3.95,30.18-2.5,30.18-2.5l-8.25,16.34Z"/>
          <path class="cls-43" d="M466,980.98c13.89-1.75,26.58-7.48,32.78-12.98,7.07-6.27,7.18-8.58,4.58-15.73-1.33-3.66-3.33-9.2-4.89-19.06-1.52-9.64-5.32-16.52-11.3-20.46-8-5.27-16.84-3.1-17.21-3.01l1.51,5.99c.07-.02,6.67-1.57,12.35,2.22,4.43,2.95,7.31,8.41,8.53,16.22,1.65,10.44,3.77,16.32,5.18,20.2.8,2.19,1.37,3.78,1.18,4.52-.26,1.01-2.2,2.84-4.06,4.49-9.18,8.14-40.85,19.53-61.03,5.03-3.48-5.49-3.17-8.21-2.56-13.49.39-3.44.88-7.72.43-13.87-1.05-14.19,4.61-21.44,17.8-22.81l-.64-6.15c-16.53,1.71-24.62,11.89-23.32,29.41.41,5.57-.02,9.37-.4,12.71-.66,5.8-1.19,10.38,3.83,18.05l.3.46.44.33c10.58,7.87,24.02,9.5,36.48,7.94Z"/>
        </g>
        <path class="cls-43" d="M486.84,929.52s-.72.57-2,1.52c-.64.47-1.43,1.03-2.33,1.66-.9.63-1.95,1.3-3.07,2.03-1.14.7-2.39,1.44-3.73,2.17-1.33.74-2.79,1.4-4.28,2.08-1.52.62-3.09,1.24-4.72,1.7-.81.26-1.65.41-2.48.63-.84.14-1.68.35-2.52.41-1.69.26-3.39.22-5.05.17-.41-.04-.82-.1-1.24-.14-.41-.05-.82-.06-1.22-.16-.8-.18-1.61-.28-2.37-.53-.77-.22-1.53-.42-2.25-.72-.73-.27-1.45-.51-2.11-.87-1.36-.61-2.58-1.35-3.73-2-.55-.37-1.08-.73-1.58-1.07-.52-.32-.98-.67-1.41-1.01-.85-.68-1.66-1.22-2.24-1.76-1.2-1.04-1.93-1.62-1.93-1.62,0,0,.49.77,1.42,2.1.44.68,1.09,1.41,1.83,2.27.7.9,1.68,1.74,2.69,2.72,1.09.89,2.27,1.89,3.7,2.7.68.46,1.44.83,2.22,1.22.76.43,1.6.71,2.45,1.03,1.7.63,3.56,1.02,5.46,1.25,1.9.16,3.86.2,5.78-.07.97-.09,1.9-.32,2.85-.49.92-.24,1.85-.47,2.74-.78.44-.16.89-.31,1.33-.46.43-.17.85-.36,1.28-.53.85-.34,1.65-.76,2.44-1.16,1.56-.83,3.01-1.73,4.32-2.66,1.33-.9,2.5-1.87,3.55-2.78,2.1-1.83,3.65-3.55,4.67-4.8,1.02-1.25,1.52-2.03,1.52-2.03Z"/>
        <g>
          <path class="cls-11" d="M486.07,1053.55s40.32,13.26,92.81-.05c52.49-13.31,43.87-23.88,43.87-23.88,0,0-10.05-83.68-79.86-71.07-48.14,6.92-55.59,64.37-55.59,64.37,0,0-4.61,15.53-1.24,30.64Z"/>
          <path class="cls-27" d="M518.11,1041.55s30.77,10.12,70.81-.04c40.05-10.16,33.47-18.22,33.47-18.22,0,0-7.67-63.84-60.93-54.22-36.73,5.28-42.41,49.11-42.41,49.11,0,0-3.52,11.85-.95,23.37Z"/>
          <path class="cls-43" d="M485.1,1056.48l-1.67-.55-.38-1.71c-3.32-14.86.62-29.82,1.22-31.95.29-2.05,2.46-15.74,10.03-30.37,10.78-20.83,27.41-33.42,48.1-36.41,20.01-3.6,37.27.11,51.21,11,25.4,19.83,31.37,56.58,32.13,62.1.62,1.27.93,3.14.23,5.25-2.61,7.89-18.2,15.51-46.33,22.65-7.78,1.97-15.76,3.48-23.72,4.48-40.85,5.15-69.61-4.1-70.82-4.49ZM619.79,1030.87l-.11-.89c-.05-.39-4.97-39.16-29.88-58.61-12.52-9.78-28.13-13.07-46.36-9.78l-.11.02c-18.87,2.71-33.48,13.81-43.46,32.98-7.59,14.58-9.49,28.59-9.5,28.73l-.1.48c-.04.14-3.99,13.77-1.54,27.32,6.67,1.85,32.41,8.02,66.42,3.73,7.71-.97,15.44-2.43,22.98-4.34,33.56-8.51,40.38-15.48,41.76-18.09.31-.59.32-.93.31-1.06l-.39-.48Z"/>
        </g>
      </g>
      <g>
        <path class="cls-44" d="M446.08,940.13s-2.54-32.26-3.02-35.4c-.48-3.14-93.47-64.17-93.47-64.17,0,0-3.6-12.02,16.67-24.25,34.6,27.98,106.07,70.24,105.84,72.81-.23,2.57,7.02,44.41,7.02,44.41,0,0-20.82,9.31-33.04,6.6Z"/>
        <path class="cls-3" d="M462.75,893.64c.22-2.53-70.64-44.37-104.36-71.61,2.41-2.06,5.02-4.01,7.86-5.72,34.6,27.98,106.07,70.24,105.84,72.81-.23,2.57,7.02,44.41,7.02,44.41,0,0-4,1.79-9.51,3.57-1.07-6.22-7.06-41.12-6.85-43.46Z"/>
        <path class="cls-15" d="M443.06,904.74c-.48-3.14-93.47-64.17-93.47-64.17,0,0-4.55-9.55,13.51-22.18-11.29,11.88-3.77,13.74-3.77,13.74,0,0,92.99,61.03,93.47,64.17.48,3.14,3.02,35.4,3.02,35.4,6.55,1.45,15.56-.55,22.52-2.71.48,2.8.78,4.55.78,4.55,0,0-17.33,12.44-33.04,6.6,0,0-2.54-32.26-3.02-35.4Z"/>
        <path class="cls-43" d="M480.2,935.95c-.88.39-17.82,8.97-30.75,6.1l-4.75-2.05-1.39-1.32c-.66-8.39-2.49-30.78-3.02-35.48-4.36-3.37-61.67-41.81-91.73-60.21l-2.37-1,.92-2.4c.39-1-3.04-13.01,17.77-25.56l1.59-.96s108.53,73.19,108.27,76.18c-.01,2.44,4.28,28.17,6.99,43.81l.02,1.36-1.55,1.51ZM366.06,819.56c-14.59,9.52-10.22,13.67-12.97,19.6,4.63,1.96,92.14,60.42,92.43,62.32.42,2.76,2.47,29.13,3.04,36.37,8.94,4.05,19.84,2.65,27.59-5.95-2.2-12.77-6.37-37.32-6.68-42.3-1.86-2.77-103.41-70.04-103.41-70.04Z"/>
      </g>
    </g>
  </g>
  <g>
    <path class="cls-34" d="M352.86,877.51l-24.13-2.09c-74.64-6.45-130.91-86.06-125.66-177.85l30.19-527.54c5.25-91.76,70.03-160.92,144.67-154.47l24.13,2.09c74.64,6.45,130.88,86.09,125.63,177.84l-30.19,527.54c-5.25,91.79-70.01,160.92-144.65,154.47Z"/>
    <path class="cls-40" d="M527.69,195.49l-30.19,527.55c-5.25,91.8-70,160.92-144.65,154.47l-24.13-2.09c-7.17-.62-14.17-1.91-20.96-3.84l6.95.6c74.63,6.45,139.38-62.67,144.63-154.47l30.19-527.54c4.75-82.93-40.74-155.97-104.66-174l17.18,1.49c74.65,6.46,130.88,86.1,125.63,177.84Z"/>
    <path class="cls-25" d="M402.93,2.54l-24.14-2.09c-81.31-7.03-152.11,68.56-157.83,168.53l-15.15,264.86-15.04,262.67c-5.72,99.95,55.77,186.99,137.08,194.02l24.14,2.09c81.31,7.03,152.09-68.56,157.81-168.53l15.09-263.74,15.1-263.79c5.72-99.95-55.77-186.99-137.06-194.02ZM527.7,195.49l-15.1,263.77-15.11,263.79c-5.24,91.78-69.99,160.92-144.63,154.45l-24.13-2.07c-74.64-6.47-130.9-86.07-125.66-177.85l15.05-263.09,15.13-264.47c5.26-91.76,70.03-160.92,144.67-154.45l24.14,2.09c74.64,6.44,130.89,86.07,125.64,177.82Z"/>
    <path class="cls-42" d="M524.89,460.35l-15.09,263.74c-5.72,99.98-76.5,175.56-157.81,168.53l-24.14-2.09c-81.31-7.03-142.79-94.07-137.08-194.02l15.04-262.67.32-.05,11.99.71-15.05,263.09c-5.24,91.78,51.02,171.38,125.66,177.85l24.13,2.07c74.64,6.47,139.39-62.67,144.63-154.45l15.11-263.79,12.29,1.09Z"/>
    <path class="cls-39" d="M512.6,459.27l-15.09,263.77c-5.25,91.8-70,160.92-144.65,154.47l-24.13-2.09c-1.09-.09-2.17-.21-3.26-.33-.21-.02-.41-.04-.61-.08-1.02-.11-2.05-.25-3.07-.42-1.1-.15-2.18-.34-3.25-.51-.14-.04-.28-.08-.45-.09-1.06-.19-2.1-.41-3.14-.63-1.02-.21-2.03-.45-3.05-.69-.2-.04-.41-.11-.59-.15-.77-.19-1.56-.39-2.33-.61-.41-.11-.81-.22-1.22-.33-63.92-18.01-109.45-91.03-104.7-174.01l15.09-263.77,294.43,25.46Z"/>
    <path class="cls-33" d="M512.6,459.27l-15.09,263.77c-5.25,91.8-70,160.92-144.65,154.47l-24.13-2.09c-1.09-.09-2.17-.21-3.26-.33-.21-.02-.41-.04-.61-.08-1.02-.11-2.05-.25-3.07-.42-1.1-.15-2.18-.34-3.25-.51-.14-.04-.28-.08-.45-.09-1.06-.19-2.1-.41-3.14-.63-1.02-.21-2.03-.45-3.05-.69-.2-.04-.41-.11-.59-.15-.77-.19-1.56-.39-2.33-.61-.41-.11-.81-.22-1.22-.33l6.95.6c74.63,6.45,139.38-62.67,144.63-154.47l14.98-261.76,38.27,3.31Z"/>
    <path class="cls-26" d="M257.17,633.98l-.89-.08c-7.39-.64-12.97-8.53-12.45-17.62l20.4-356.46c.52-9.09,6.94-15.94,14.33-15.3l.89.08c7.39.64,12.97,8.53,12.45,17.62l-20.4,356.46c-.52,9.09-6.94,15.94-14.33,15.3Z"/>
    <path class="cls-27" d="M341.7,876.54l-12.98-1.12c-74.63-6.45-130.91-86.05-125.66-177.84l30.19-527.55c5.25-91.75,70.04-160.92,144.67-154.47l12.98,1.12c-74.63-6.45-139.42,62.72-144.67,154.47l-30.19,527.55c-5.25,91.8,51.02,171.39,125.66,177.84Z"/>
  </g>
  <g>
    <g>
      <path class="cls-3" d="M615.94,749.62s-26.09-95.19-148.41-150.92c-1.97-15.3,8.68-24.98,19.33-24.41,55.47,15.57,135.67,70.01,172.54,148.81-30.72,18.62-43.46,26.52-43.46,26.52Z"/>
      <path class="cls-16" d="M479.5,578.93s7.44,24.16,20.85,33.34c67.44,46.19,83.06,76.4,83.06,76.4,0,0,8.1,27.24,17.76,17.59,9.65-9.66,17.39-19.16,17.52-20.22.13-1.05-109.87-111.18-139.18-107.11Z"/>
      <path class="cls-3" d="M473.74,583.93s-10.16-6.48,8.57-5.14c7.9.56,91.35,59.91,130.84,121.17,21.89-1.07,20.3-14.69,20.3-14.69,0,0-59.8-90.59-149.52-111.1-12,2.54-11.54,2.99-10.19,9.77Z"/>
      <path class="cls-43" d="M614.06,754.43l-1.09-3.99c-.06-.23-6.72-23.83-28.05-53.84-19.68-27.68-56.24-66.64-118.66-95.08l-1.56-.71-.22-1.7c-1.74-13.5,5.18-22.12,12.25-25.69,3.23-1.63,6.8-2.39,10.32-2.2l.34.02.33.09c59.54,16.71,138.6,73.76,174.5,150.48l1.18,2.51-2.37,1.44c-30.35,18.4-43.31,26.42-43.43,26.5l-3.52,2.18ZM470.43,596.63c62.83,29.01,99.74,68.5,119.69,96.64,16.99,23.96,24.79,43.6,27.56,51.64,5.4-3.32,17.48-10.73,37.72-23.01-35.57-73.62-111.54-128.27-169.04-144.54-2.34-.07-4.71.47-6.88,1.56-4.89,2.47-9.67,8.37-9.06,17.7Z"/>
    </g>
    <g>
      <g>
        <path class="cls-10" d="M660.07,692.09c15.55,15.13,11.55,32.29-3.38,47.64-14.93,15.35-39.64,15.53-55.19.4-15.55-15.13-18.25-32.92-3.32-48.27,14.93-15.35,46.34-14.9,61.89.23Z"/>
        <path class="cls-27" d="M658.84,690.44c11.25,10.95,13.86,26.16,3.05,37.27-10.81,11.11-34.19,8.45-45.44-2.5-11.25-10.95-13.21-23.83-2.4-34.94,10.81-11.11,33.54-10.79,44.8.17Z"/>
        <path class="cls-43" d="M625.1,753.85c-9.52-.9-18.57-5.09-25.47-11.8-17.37-16.9-18.63-36.36-3.37-52.05,8.6-8.84,22.63-13.28,37.52-11.88,11.26,1.06,21.25,5.34,28.15,12.05,8.05,7.84,11.6,16.57,10.53,25.96-.96,8.43-5.62,17-13.86,25.47-8.73,8.97-20.94,13.43-33.5,12.25ZM633.28,683.44c-13.1-1.23-25.82,2.71-33.19,10.28-13.12,13.49-11.93,29.7,3.27,44.49,6.03,5.87,13.93,9.53,22.24,10.31,10.95,1.03,21.58-2.85,29.17-10.66,10.76-11.06,20.1-27.65,3.43-43.86-6.03-5.87-14.88-9.62-24.93-10.56Z"/>
      </g>
      <g>
        <path class="cls-27" d="M701.87,751.79c-19.86-31.09-52.87-39.33-52.87-39.33l-43.04,13.27c-20.76,20.74-29.11,61.08-22.78,82,6.33,20.92,14.5,25.46,31.04,19.38,13.45,15.79,1.86,27.47,13.58,36.53,9.68,7.49,27.91,8.47,35.44-5.64,6.56.56,20.41-6.26,26.75-17.61,8.44-2.34,17.14-5,19.93-24,12.77-10.23,16.96-25.45-8.05-64.59Z"/>
        <path class="cls-35" d="M605.96,725.73l5.64-1.74c-12.45,21.59-16.74,50.59-11.69,67.25,6.33,20.92,8.44,19.47,24.98,13.38,13.46,15.79,15.67,25.53,19.36,39.88,1.85,7.19,9.29,12.51,19.57,6.41.69,2.4,1.53,4.71,2.47,6.9-1.12.19-2.15.25-3.04.18-7.53,14.11-25.75,13.13-35.44,5.64-11.71-9.06-.12-20.74-13.58-36.53-16.54,6.09-24.71,1.54-31.04-19.38-6.33-20.91,2.02-61.25,22.78-82Z"/>
        <path class="cls-43" d="M616.52,829.82c.47-.19,4.74-2.02,11.1-7.9l-4.19-4.54c-5.55,5.12-9.23,6.71-9.26,6.72l2.35,5.72Z"/>
        <path class="cls-43" d="M614.56,807.28c.94,1.39,1.9,2.74,2.85,4.08l2.85,4.01c1.9,2.66,3.76,5.32,5.55,8l1.31,2.03,1.27,2.04,1.2,2.07c.4.69.76,1.4,1.13,2.1.36.71.71,1.41,1.03,2.13.18.35.31.72.47,1.08.16.36.31.72.44,1.09.28.73.53,1.47.74,2.22.1.37.21.75.3,1.13l.23,1.14,1.76-.62c-.74-.86-1.54-1.68-2.32-2.52-.8-.82-1.6-1.64-2.44-2.42.48,1.05,1,2.07,1.53,3.09.55,1,1.07,2.02,1.66,2.99l1.75,2.92v-3.54s.01-1.31.01-1.31c-.02-.44-.06-.87-.09-1.31-.11-.86-.23-1.73-.45-2.57-.18-.85-.44-1.67-.71-2.49l-.43-1.22-.49-1.19c-.68-1.57-1.45-3.09-2.3-4.55-.85-1.46-1.78-2.87-2.75-4.24-1.96-2.73-4.13-5.29-6.47-7.66-.58-.6-1.19-1.17-1.8-1.74-.61-.57-1.22-1.14-1.86-1.67-1.26-1.09-2.57-2.13-3.97-3.06Z"/>
        <path class="cls-43" d="M652.11,871.11c5.98-1.54,10.78-5.02,14.03-10.17,8.27-.56,20.73-7.87,27-18.06,8.09-2.29,17.59-5.8,20.77-25.01,16.12-13.7,13.66-33.51-8.31-67.89-20.29-31.76-64.31-40.42-65.71-40.77l9.48,6.1c.32.08,32.09,8.37,51.01,37.99,26.32,41.2,18.3,52.84,8.72,60.52l-.95.76-.18,1.2c-2.54,17.26-9.9,19.31-17.7,21.48l-1.24.35-.63,1.13c-5.98,10.7-18.8,16.46-23.79,16.04l-2.03-.17-.96,1.8c-3.17,5.94-8.21,8.13-11.87,8.91-6.4,1.37-13.83-.3-18.95-4.26-4.54-3.51-4.69-7.24-4.92-12.88-.26-6.36-.57-14.27-8.2-23.21l-1.4-1.64-2.02.74c-7.13,2.62-12.17,2.99-15.87,1.14-4.45-2.22-7.99-8.1-11.14-18.51-6.12-20.21,2.16-59.08,22-78.91l3.42-10.08c-10.01,10.01-25.75,30.75-30.15,48.06-4.04,15.88-4.49,31.85-1.19,42.72,3.73,12.32,8.14,19.19,14.3,22.25,4.9,2.44,10.87,2.41,18.65-.14,4.97,6.62,5.2,12.31,5.42,17.82.24,6.02.49,12.24,7.31,17.52,6.5,5.03,15.93,7.15,24.03,5.42.35-.07.7-.16,1.04-.25Z"/>
        <path class="cls-43" d="M667.26,857.08s-.01-.18-.04-.52c-.03-.38-.09-.84-.16-1.46-.16-1.22-.42-2.93-.82-4.94-.21-1-.43-2.09-.72-3.23-.28-1.14-.57-2.33-.93-3.55-.33-1.23-.73-2.48-1.13-3.74-.39-1.27-.87-2.53-1.3-3.81-.48-1.25-.96-2.51-1.44-3.74-.52-1.21-1.03-2.41-1.52-3.56-.53-1.13-1.05-2.23-1.54-3.27-.48-1.04-1.01-1.99-1.46-2.88-.46-.88-.86-1.71-1.28-2.41-.4-.7-.75-1.32-1.04-1.83-.57-1.01-.9-1.59-.9-1.59,0,0,.24.62.66,1.7.21.54.46,1.2.76,1.95.31.75.58,1.62.91,2.55.31.94.7,1.94,1.01,3.03.33,1.08.67,2.23,1.03,3.41.31,1.19.64,2.42.97,3.67.28,1.26.57,2.54.86,3.81.24,1.29.52,2.56.71,3.83.2,1.27.41,2.51.55,3.72.17,1.21.28,2.37.39,3.48.11,1.11.16,2.15.23,3.11.1,1.92.11,3.51.09,4.61-.02.54-.03.98-.05,1.22-.02.28-.03.43-.03.43h6.18Z"/>
        <path class="cls-43" d="M693.73,839.68s-.01-.18-.04-.52c-.03-.38-.09-.84-.16-1.46-.16-1.22-.42-2.93-.82-4.94-.21-1-.43-2.09-.72-3.23-.28-1.14-.57-2.33-.93-3.55-.33-1.23-.73-2.48-1.13-3.74-.39-1.27-.87-2.53-1.3-3.81-.48-1.25-.97-2.51-1.44-3.74-.52-1.21-1.03-2.41-1.52-3.56-.53-1.13-1.05-2.23-1.54-3.27-.48-1.04-1.01-1.99-1.46-2.88-.47-.89-.86-1.71-1.28-2.41-.4-.7-.75-1.32-1.04-1.83-.57-1.01-.9-1.59-.9-1.59,0,0,.24.62.66,1.7.21.54.46,1.2.76,1.95.31.74.58,1.62.91,2.55.31.94.7,1.94,1.02,3.03.33,1.08.67,2.23,1.03,3.41.31,1.19.64,2.42.97,3.67.28,1.26.57,2.54.86,3.82.24,1.29.52,2.56.71,3.83.2,1.27.41,2.51.55,3.72.17,1.21.28,2.37.39,3.48.11,1.11.16,2.15.23,3.11.1,1.92.11,3.51.09,4.61-.02.54-.03.98-.05,1.22-.02.28-.03.43-.03.43h6.18Z"/>
        <path class="cls-43" d="M713.67,819.08s-.01-.18-.04-.52c-.03-.38-.08-.84-.16-1.46-.16-1.22-.42-2.93-.82-4.94-.21-1-.43-2.09-.72-3.23-.28-1.14-.58-2.33-.93-3.55-.33-1.23-.73-2.48-1.13-3.74-.39-1.27-.87-2.53-1.3-3.81-.48-1.25-.97-2.51-1.44-3.74-.52-1.21-1.03-2.41-1.52-3.56-.53-1.13-1.05-2.23-1.54-3.27-.48-1.04-1.01-1.99-1.46-2.88-.47-.88-.86-1.71-1.28-2.41-.4-.71-.75-1.32-1.03-1.83-.57-1.01-.9-1.59-.9-1.59,0,0,.24.62.66,1.7.21.54.46,1.2.76,1.95.31.75.58,1.62.91,2.55.31.94.7,1.94,1.02,3.03.33,1.08.67,2.23,1.03,3.41.31,1.19.64,2.42.97,3.67.28,1.26.57,2.54.86,3.82.24,1.29.51,2.56.71,3.83.2,1.27.41,2.51.55,3.72.17,1.21.28,2.37.39,3.48.11,1.11.16,2.15.23,3.11.1,1.92.11,3.51.09,4.61-.02.54-.03.98-.05,1.22-.02.28-.03.43-.03.43h6.18Z"/>
      </g>
    </g>
  </g>
  <g>
    <g class="cls-1">
      <path class="cls-14" d="M287.51,539.72s11.28,4.27,16.1,13.55c2.09,1.59,2.68.86,6.32-.43,3.64-1.28,20.37-11.01,34.82-.19-22.89,6.9-32.87,7.99-38.1,7.67-5.22-.31-13.07-9.95-19.14-20.61Z"/>
    </g>
    <g class="cls-28">
      <path class="cls-37" d="M457.7,461.2c-34.03-19.3-59.23-3.56-107.15,22.02.38,33.32,12.5,38.79,12.5,38.79l82.33-8.4s13.34-16.7,12.32-52.4Z"/>
    </g>
    <g class="cls-30">
      <path class="cls-38" d="M245.99,457.91c-11.01,2.93-12.26,3.85-12.26,3.85,0,0-6.47,25.61,13.58,55.87l70.31-28.77s-31-32.33-71.63-30.94Z"/>
    </g>
    <path class="cls-43" d="M360.06,485.45s-.13.18-.46.44c-.32.26-.83.62-1.48,1.04-1.32.83-3.26,1.93-5.65,3.12-1.19.6-2.51,1.21-3.91,1.82-1.41.61-2.9,1.23-4.58,1.69-.43.11-.86.22-1.39.25-.14,0-.28,0-.47-.02h-.07s-.04-.02-.04-.02c.05.01-.1-.03-.09-.02l-.08-.02-.16-.05c-.15-.06-.32-.13-.44-.2l-.34-.2c-.83-.56-1.46-1.24-2.05-1.95-1.17-1.43-2.11-3.02-2.88-4.68-.77-1.65-1.44-3.35-1.93-5.06-.5-1.71-.92-3.41-1.21-5.07s-.53-3.27-.66-4.81c-.14-1.53-.23-2.99-.25-4.33-.02-1.34-.03-2.57.03-3.65.02-1.09.11-2.03.16-2.81.06-.78.14-1.38.18-1.8.04-.41.07-.64.07-.64,0,0,.08.88.21,2.43.08.77.14,1.71.25,2.78.11,1.07.23,2.28.39,3.59.18,1.31.34,2.73.6,4.21.24,1.49.52,3.05.88,4.64.37,1.59.75,3.23,1.27,4.86.52,1.62,1.09,3.25,1.81,4.82.72,1.55,1.52,3.08,2.49,4.4.48.66,1.03,1.26,1.59,1.71l.2.15c.06.04.08.05.12.09l.15.06.07.03s-.11-.03-.05-.01h.01s.1.02.16.02c.31,0,.71-.07,1.09-.15,1.54-.35,3.06-.87,4.48-1.36,1.42-.5,2.76-1.03,3.99-1.51,2.46-.98,4.48-1.87,5.87-2.55.7-.33,1.23-.62,1.58-.84.35-.21.51-.38.51-.38Z"/>
    <g>
      <path class="cls-27" d="M291.14,515c1.07.46,2.17.84,3.17,1.39,1.02.52,2.04,1,2.97,1.61.68.42,2.31,1.5,2.95,1.94l2.09-3.19c.59-.92,1.15-1.84,1.73-2.77.73-1.25,1.48-2.49,2.18-3.76l1.07-1.89,1.02-1.92c.35-.64.66-1.29.98-1.94.33-.65.65-1.3.95-1.95.62-1.31,1.22-2.63,1.79-3.96l.84-2.01.78-2.03c.49-1.36.99-2.73,1.43-4.11.44-1.38.84-2.78,1.2-4.19.01-.06.03-.11.04-.17-1.05-3.94-2.98-7.7-5.81-11-10.08-11.74-27.77-13.08-39.51-3-11.74,10.08-13.08,27.77-3,39.51.25.29.51.58.77.86.61-.08,1.22-.14,1.85-.19,2.18-.2,4.46-.25,6.78-.13,1.16.07,2.32.13,3.49.31,1.17.12,2.33.35,3.49.57,1.16.22,2.3.57,3.44.85,1.12.37,2.25.71,3.33,1.15Z"/>
      <path class="cls-43" d="M289.76,518.72c2,.73,3.95,1.51,5.76,2.46.45.23.9.46,1.35.69.45.22.86.5,1.29.74.05.03.1.06.15.09.33-.48.67-.95.99-1.44l.91-1.33c-.07-.05-.15-.11-.22-.16-.84-.65-1.78-1.2-2.73-1.78-.93-.61-1.95-1.09-2.97-1.61-1-.55-2.1-.94-3.17-1.39-1.08-.43-2.21-.78-3.33-1.15-1.14-.28-2.28-.63-3.44-.85-1.16-.22-2.32-.45-3.49-.57-1.16-.18-2.33-.24-3.49-.31-2.31-.12-4.59-.07-6.78.13-2.19.16-4.27.53-6.23.91-1.95.43-3.78.89-5.43,1.44-1.65.52-3.14,1.1-4.43,1.64-1.3.53-2.4,1.08-3.29,1.53-1.79.92-2.73,1.58-2.73,1.58,0,0,.27-.08.79-.23.51-.15,1.27-.34,2.23-.59.96-.24,2.13-.51,3.47-.8,1.34-.28,2.86-.57,4.51-.83,1.65-.28,3.45-.49,5.34-.7,1.9-.16,3.89-.32,5.96-.33,1.03-.04,2.08.02,3.13.02.53.02,1.06.06,1.59.09.53.03,1.07.04,1.6.11.54.05,1.07.1,1.61.16.54.05,1.07.15,1.61.22,1.08.12,2.14.35,3.2.56,1.07.19,2.11.5,3.16.74,1.02.34,2.07.6,3.07.97Z"/>
      <path class="cls-43" d="M317.76,477.6c.19,1.46.18,2.95.13,4.43-.07,1.48-.2,2.96-.39,4.43-.2,1.47-.46,2.94-.76,4.39-.3,1.46-.64,2.91-1.04,4.34l-.63,2.14-.68,2.13c-.48,1.41-.96,2.82-1.53,4.2-.27.7-.55,1.38-.85,2.07-.29.68-.57,1.38-.89,2.05l-.93,2.03-.98,2.01c-.65,1.34-1.38,2.64-2.09,3.95-.74,1.29-1.45,2.6-2.24,3.86l-1.15,1.91-1.2,1.88c-.8,1.26-1.67,2.46-2.51,3.69-.84,1.22-1.74,2.41-2.61,3.62l-2.7,3.54c-.93,1.16-1.88,2.3-2.82,3.45l-2.91,3.37.37-2.05c.95,2.5,2.33,4.95,3.86,7.27,1.54,2.33,3.28,4.53,5.21,6.53,1.93,1.98,4.06,3.79,6.37,5.01.58.29,1.16.56,1.75.74l.11.04h.03s.01.01.01.01c.05.01-.05-.01-.04,0l.07.02.26.07c.14.02.21.05.38.07.29.05.61.08.94.1,1.31.07,2.73,0,4.13-.13,2.82-.27,5.68-.66,8.52-1.15,2.85-.49,5.69-1.04,8.53-1.6,2.84-.57,5.68-1.18,8.52-1.78l8.52-1.88c-2.74,1-5.5,1.93-8.27,2.82-1.39.44-2.77.89-4.17,1.31l-4.19,1.23c-2.8.81-5.63,1.55-8.48,2.22-2.85.66-5.72,1.31-8.67,1.7-1.48.19-2.97.36-4.56.34-.4,0-.81-.02-1.23-.07-.2-.01-.48-.07-.7-.1l-.27-.06h-.07s-.13-.05-.13-.05l-.15-.04c-.81-.21-1.57-.51-2.3-.84-1.46-.67-2.79-1.5-4.02-2.44-1.23-.93-2.39-1.93-3.47-2.99-2.17-2.12-4.11-4.44-5.86-6.9-.87-1.24-1.67-2.52-2.42-3.85-.75-1.33-1.42-2.71-2-4.17l-.44-1.1.81-.95,2.82-3.32,2.75-3.38,2.68-3.43c.86-1.17,1.75-2.31,2.59-3.5.83-1.19,1.69-2.35,2.48-3.56l1.23-1.79,1.19-1.82c.81-1.2,1.54-2.45,2.31-3.68.73-1.25,1.48-2.49,2.18-3.76l1.07-1.89,1.02-1.92c.35-.64.66-1.29.98-1.94.33-.65.65-1.3.95-1.95.62-1.31,1.22-2.63,1.79-3.96l.84-2.01.78-2.03c.49-1.36.99-2.73,1.43-4.11.44-1.38.84-2.78,1.2-4.19.36-1.41.69-2.83.94-4.27.26-1.44.47-2.89.54-4.36Z"/>
      <path class="cls-43" d="M291.48,467.63c1.08.13,2.17.18,3.21.45.52.12,1.06.2,1.57.34.51.15,1.02.31,1.53.46.25.08.51.15.76.23l.73.3c.49.2.97.4,1.46.6.47.23.92.49,1.38.73.45.25.93.45,1.35.76.85.58,1.74,1.07,2.5,1.75.39.32.78.63,1.17.94.38.32.71.69,1.07,1.03.34.33.67.66,1,.99.33.4.66.79.99,1.18.16.2.34.39.48.58l.4.56c.26.38.54.73.8,1.12.47.8,1.01,1.56,1.39,2.38.2.4.41.8.61,1.2.17.41.34.82.5,1.22.55,1.36.96,2.73,1.27,4.06.22-.77.43-1.53.63-2.31.24-.92.45-1.85.65-2.79-.14-.42-.27-.84-.41-1.27-.19-.46-.38-.92-.57-1.38-.35-.95-.88-1.83-1.34-2.77-.26-.46-.56-.92-.85-1.38l-.44-.7c-.15-.23-.3-.42-.46-.63-.31-.41-.61-.82-.92-1.24l-.06-.08-.11-.13-.14-.15-.28-.31-.56-.62c-2.99-3.3-6.93-6.24-11.6-7.88-.58-.2-1.17-.4-1.76-.61-.59-.18-1.21-.3-1.82-.46-1.21-.34-2.48-.45-3.74-.63-2.53-.21-5.15-.23-7.72.25-1.3.15-2.56.54-3.83.86-.64.16-1.24.43-1.87.65-.61.24-1.25.44-1.83.75l-1.78.87c-.6.28-1.18.7-1.76,1.05l-.88.55c-.14.09-.3.18-.43.28l-.36.28-1.45,1.12-.36.28-.04.04c-.2.16-.08.07-.14.12l-.09.09-.18.17-.72.69c-.47.47-.98.9-1.42,1.4-.85,1.02-1.78,1.97-2.49,3.1-.37.55-.77,1.08-1.11,1.64l-.95,1.73c-.34.57-.59,1.17-.85,1.78-.25.61-.53,1.2-.75,1.81-.38,1.25-.86,2.46-1.07,3.74-.13.63-.28,1.26-.38,1.89-.07.64-.14,1.27-.21,1.91-.03.32-.08.63-.09.95l-.02.95c0,.63-.03,1.26-.02,1.89.05.63.1,1.25.16,1.87l.08.93.17.91c.11.61.22,1.21.33,1.81.14.59.33,1.18.49,1.76.28,1.18.79,2.27,1.22,3.37.2.56.5,1.07.77,1.59.27.51.54,1.03.81,1.54.33.5.65.99.97,1.48l.49.73c.16.25.32.48.49.67.33.41.67.81,1,1.21l.49.6.18.22.04.04c1.25-.21,2.53-.39,3.86-.48.08,0,.16-.01.25-.02-.09-.09-.18-.18-.27-.27-.31-.36-.63-.72-.94-1.08l-.24-.27-.09-.11h0s-.03-.04-.03-.04l-.06-.08-.46-.63c-.31-.42-.61-.84-.93-1.27-.17-.21-.29-.42-.4-.63l-.36-.63c-.24-.42-.48-.84-.73-1.26-.21-.46-.42-.92-.63-1.38-.21-.47-.45-.92-.59-1.41-.32-.98-.71-1.94-.91-2.97-.12-.51-.26-1.01-.36-1.53-.08-.52-.15-1.04-.22-1.57-.6-4.21.02-8.67,1.53-12.81.86-2.03,1.83-4.05,3.19-5.83.6-.95,1.4-1.74,2.11-2.6.37-.42.81-.78,1.21-1.17l.61-.58.15-.14.08-.07s0,0,0,0l.35-.27,1.45-1.13.36-.28c.12-.08.23-.14.34-.22l.68-.42c.47-.27.87-.59,1.38-.83l1.5-.75c.49-.27,1.03-.44,1.54-.64.53-.18,1.03-.43,1.57-.57,1.07-.28,2.13-.64,3.23-.78,2.17-.44,4.39-.46,6.56-.37Z"/>
    </g>
    <g>
      <path class="cls-43" d="M312.15,494.41c1.05,7.51-4.18,14.45-11.69,15.5-7.51,1.05-14.45-4.18-15.5-11.69-1.05-7.51,4.18-14.45,11.69-15.5,7.51-1.05,14.45,4.18,15.5,11.69Z"/>
      <path class="cls-27" d="M311.14,483.49c.56,4-2.23,7.69-6.22,8.25-4,.56-7.69-2.23-8.25-6.22-.56-4,2.23-7.69,6.22-8.25,4-.56,7.69,2.23,8.25,6.22Z"/>
      <path class="cls-27" d="M295.99,503.93c.19,1.35-.75,2.6-2.1,2.79-1.35.19-2.6-.75-2.79-2.1-.19-1.35.75-2.6,2.1-2.79,1.35-.19,2.6.75,2.79,2.1Z"/>
    </g>
    <g>
      <path class="cls-27" d="M420.69,474.49c-10.6-12.2-29.08-13.5-41.28-2.9-9.43,8.19-12.35,21.1-8.29,32.17,0,0,2.83,9.32,12.46,14.9.12.07.23-.15.35-.22,1.72-1.01,3.56-2.06,5.57-2.94,1.99-.92,4.12-1.73,6.34-2.39,1.11-.31,2.24-.65,3.39-.87,1.14-.27,2.31-.45,3.48-.63,1.17-.18,2.36-.23,3.53-.35,1.18-.03,2.35-.08,3.52-.03,1.16.07,2.32.07,3.45.25,1.13.15,2.25.26,3.33.52,1.08.23,2.15.43,3.16.76.28.08.56.17.84.25,9.56-10.83,9.87-27.32.14-38.52Z"/>
      <path class="cls-43" d="M371.03,529.58s.67-.93,2.05-2.4c.69-.73,1.54-1.61,2.59-2.54,1.04-.94,2.24-1.98,3.63-3.03,1.37-1.06,2.94-2.11,4.63-3.17,1.72-1.01,3.56-2.06,5.57-2.94,1.99-.92,4.12-1.73,6.34-2.39,1.11-.31,2.24-.65,3.39-.87,1.14-.27,2.31-.45,3.48-.63,1.17-.18,2.36-.23,3.53-.35,1.18-.03,2.35-.08,3.52-.03,1.16.07,2.32.07,3.45.25,1.13.15,2.25.26,3.33.52,1.08.23,2.15.43,3.16.76,1.02.3,2.02.57,2.95.96.47.18.93.36,1.39.54.46.17.9.35,1.32.56.85.41,1.67.81,2.46,1.19.76.43,1.48.85,2.16,1.26.34.21.67.41.99.6.32.2.61.42.9.62.57.41,1.12.78,1.6,1.14.24.18.48.35.7.52.21.18.42.35.61.51.77.64,1.36,1.18,1.76,1.52.4.36.61.55.61.55,0,0-.26-.12-.74-.36-.48-.24-1.19-.57-2.07-1.03-.22-.11-.45-.23-.69-.36-.25-.11-.51-.22-.79-.34-.55-.23-1.13-.51-1.75-.79-.31-.14-.63-.29-.96-.43-.34-.13-.69-.26-1.05-.39-.72-.26-1.45-.57-2.23-.86-.79-.25-1.61-.52-2.46-.79-.84-.3-1.75-.47-2.66-.72-.9-.26-1.86-.43-2.83-.62-.49-.08-.97-.21-1.46-.27-.5-.07-1-.13-1.51-.2-2.02-.28-4.12-.37-6.25-.39-1.07-.01-2.14.09-3.22.11-1.07.12-2.15.18-3.23.35-1.07.16-2.15.3-3.21.54-.53.12-1.06.2-1.59.33-.52.13-1.05.26-1.57.39-.52.12-1.03.29-1.54.43-.51.15-1.02.29-1.53.45-1,.35-2,.65-2.96,1.03-1.94.7-3.76,1.52-5.5,2.3-1.71.83-3.34,1.62-4.8,2.44-1.47.8-2.81,1.58-3.98,2.29-1.16.72-2.18,1.37-3,1.92-.82.56-1.47.99-1.9,1.31-.44.31-.67.48-.67.48Z"/>
      <path class="cls-43" d="M370.29,499.81c-.09-.42-.1-.89-.16-1.38-.04-.49-.13-1.01-.13-1.56-.14-2.2.02-4.88.64-7.84.62-2.96,1.87-6.16,3.79-9.27.23-.4.49-.78.77-1.15.27-.38.55-.76.82-1.14.31-.36.61-.73.92-1.1.16-.18.31-.37.47-.55l.51-.52c.34-.35.69-.7,1.04-1.05.37-.33.75-.66,1.12-1l.28-.25.11-.1h0l.04-.03.08-.06.65-.48c.44-.32.87-.65,1.31-.97.22-.18.44-.31.66-.43l.65-.38c.43-.26.87-.51,1.31-.77.48-.22.96-.44,1.44-.67.49-.22.96-.48,1.48-.63,1.02-.34,2.03-.76,3.1-.98.53-.13,1.06-.28,1.6-.39.55-.08,1.09-.16,1.65-.24,4.41-.66,9.08-.04,13.44,1.52,2.14.89,4.26,1.89,6.14,3.3,1,.62,1.83,1.46,2.74,2.2.44.38.82.84,1.23,1.26l.61.64.15.16.08.08s0,0,0,0l.29.37,1.19,1.51.3.38c.09.12.15.24.23.36l.45.71c.29.49.63.91.88,1.45l.79,1.57c.29.51.46,1.07.68,1.61.2.55.46,1.08.61,1.64.3,1.12.68,2.23.83,3.38.47,2.27.51,4.59.42,6.87-.14,1.13-.18,2.27-.46,3.37-.12.55-.2,1.11-.34,1.65-.16.54-.32,1.07-.48,1.6-.08.27-.15.54-.24.8l-.31.77c-.21.51-.41,1.02-.62,1.53-.24.49-.51.97-.76,1.45-.26.48-.47.98-.78,1.42-.6.89-1.12,1.83-1.82,2.63-.33.41-.66.82-.98,1.23-.04.05-.09.1-.14.15.38.09.75.19,1.12.31.94.28,1.86.53,2.72.87,2.44-2.75,4.53-6.04,5.82-9.78.21-.61.41-1.22.62-1.83.19-.62.31-1.26.46-1.9.35-1.27.45-2.58.64-3.9.2-2.64.2-5.36-.31-8.03-.17-1.35-.57-2.66-.92-3.98-.17-.66-.46-1.29-.68-1.94-.25-.64-.46-1.3-.79-1.9l-.92-1.85c-.3-.62-.73-1.22-1.1-1.83l-.58-.91c-.1-.15-.19-.31-.29-.45l-.29-.38-1.18-1.51-.3-.38-.04-.05c-.16-.2-.07-.08-.12-.14l-.09-.09-.18-.19-.72-.75c-.49-.49-.94-1.01-1.46-1.47-1.07-.88-2.06-1.84-3.24-2.57-.57-.38-1.13-.79-1.71-1.15l-1.81-.98c-.59-.35-1.22-.61-1.85-.87-.63-.26-1.25-.54-1.89-.77-1.3-.38-2.57-.88-3.9-1.09-.66-.13-1.31-.28-1.97-.38-.66-.07-1.33-.14-1.99-.21-.33-.03-.66-.08-.99-.09h-.99c-.66-.01-1.31-.03-1.97-.02-.65.06-1.3.12-1.95.17l-.97.09-.95.18c-.63.12-1.26.24-1.88.36-.62.15-1.22.35-1.83.52-1.23.3-2.36.83-3.5,1.29-.58.21-1.11.53-1.65.81-.54.29-1.07.57-1.6.85-.51.34-1.02.68-1.53,1.02l-.75.51c-.26.17-.5.34-.7.52-.42.35-.84.7-1.26,1.04l-.62.52-.22.18-.15.15-.3.3c-.4.4-.8.79-1.19,1.18-.38.41-.72.84-1.08,1.25l-.53.62c-.17.21-.32.43-.48.65-.31.43-.62.86-.93,1.29-.27.45-.55.89-.81,1.33-.27.43-.53.87-.75,1.33-1.88,3.56-2.87,7.14-3.22,10.33-.37,3.2-.19,6,.22,8.24.06.56.22,1.08.32,1.58.12.49.2.96.35,1.38.28.84.46,1.56.7,2.12.45,1.11.7,1.71.7,1.71,0,0-.15-.62-.44-1.79-.16-.58-.24-1.31-.4-2.16Z"/>
    </g>
    <g>
      <path class="cls-43" d="M413.79,491.79c1.23,8.76-4.88,16.85-13.64,18.08-8.76,1.23-16.85-4.88-18.08-13.64-1.23-8.76,4.88-16.85,13.64-18.08,8.76-1.23,16.85,4.88,18.08,13.64Z"/>
      <path class="cls-27" d="M412.62,479.05c.65,4.66-2.6,8.97-7.26,9.63-4.66.65-8.97-2.6-9.63-7.26-.65-4.66,2.6-8.97,7.26-9.63,4.66-.65,8.97,2.6,9.63,7.26Z"/>
      <path class="cls-27" d="M394.95,502.89c.22,1.58-.88,3.03-2.45,3.25-1.58.22-3.03-.88-3.25-2.45-.22-1.58.88-3.03,2.45-3.25,1.58-.22,3.03.88,3.25,2.45Z"/>
    </g>
    <path class="cls-43" d="M287.51,539.77s.22-.04.65-.03c.43.01,1.06.1,1.84.31.77.23,1.7.57,2.7,1.09.99.53,2.09,1.18,3.18,2.02.55.42,1.12.86,1.68,1.35.57.48,1.15.98,1.7,1.55.28.28.57.56.86.84.28.3.55.59.83.9.57.6,1.14,1.23,1.68,1.89.54.62,1.14,1.44,1.57,1.82.5.44,1.07.72,1.74.85,1.34.26,3-.08,4.63-.55,1.64-.49,3.31-1.11,4.98-1.7,1.67-.6,3.35-1.16,5.01-1.62,1.66-.47,3.3-.84,4.89-1.05,1.58-.22,3.1-.3,4.5-.23,2.8.11,5.06.8,6.53,1.42.74.31,1.29.61,1.67.81.37.21.56.33.56.33,0,0-.22-.06-.63-.18-.41-.11-1.01-.26-1.77-.42-.76-.15-1.7-.28-2.76-.37-1.07-.06-2.27-.07-3.57.03-1.3.12-2.7.33-4.15.67-1.46.35-2.97.79-4.54,1.32-1.56.54-3.16,1.16-4.81,1.79-1.65.62-3.35,1.28-5.16,1.79-.91.25-1.84.48-2.84.59-.98.11-2.05.13-3.11-.14-1.06-.26-2.09-.84-2.84-1.6-.1-.09-.19-.21-.29-.31l-.14-.16-.1-.13-.41-.54c-.25-.34-.5-.67-.75-1.01-.48-.68-.98-1.32-1.48-1.94-.25-.31-.49-.62-.73-.93-.25-.29-.51-.58-.76-.87-.25-.29-.49-.57-.73-.85-.25-.27-.5-.53-.74-.79-.48-.53-.98-1-1.45-1.46-.47-.47-.96-.86-1.41-1.27-.47-.38-.91-.74-1.35-1.05-.87-.62-1.68-1.1-2.37-1.44-.7-.32-1.28-.53-1.69-.62-.41-.1-.63-.11-.63-.11Z"/>
    <g>
      <path class="cls-27" d="M412.25,633.44c-.16-.42-7.92-20.6-21.35-36.46h0c-6.57-7.77-14.5-14.5-23.55-17.37-15.51-5.46-53.75-3.58-65.37-2.85-2.16.14-3.41.24-3.41.24h0c.03.55,1.08,19.7-6.35,45.21,0,.01,0,.03,0,.04,0,0,.36-.02,1.03-.06h.1c7.27-.4,47.95-2.33,77.79,1.73,31.03,4.23,40.83,9.37,41.13,9.52Z"/>
      <path class="cls-43" d="M415.98,637.66l-4.67-2.41c-.41-.21-10.32-5.2-40.46-9.31-8.55-1.16-18.8-1.93-30.47-2.29-21.44-.65-41.34.27-46.93.57l-1.12.07-3.66.22,1.63-3.03c7.26-25.02,6.27-43.57,6.22-44.34l-.06-2.02,1.95-.15s1.25-.09,3.43-.24c6.24-.39,22.38-1.25,37.66-.78,13.01.4,22.61,1.65,28.53,3.74,8.35,2.65,16.59,8.7,24.44,17.97l.42.5c13.41,16.06,21.22,36.38,21.29,36.58l1.81,4.92ZM340.5,619.57c11.81.36,22.21,1.14,30.9,2.33,20.06,2.73,31.39,5.86,37.08,7.83-3.02-6.8-9.64-20.21-19.13-31.42l-.42-.49c-7.22-8.4-14.68-13.86-22.2-16.25-5.58-1.96-14.76-3.15-27.36-3.53-15.11-.46-31.1.39-37.27.77-.54.04-1.02.07-1.43.1.08,5.36-.24,21.09-5.72,41.16,7.33-.36,25.79-1.09,45.55-.49Z"/>
    </g>
    <path class="cls-43" d="M309.51,636.41s.82-.15,2.25-.35c1.43-.2,3.49-.46,5.95-.67,1.23-.11,2.57-.24,3.98-.32,1.41-.08,2.91-.18,4.45-.24,1.54-.06,3.14-.14,4.76-.15,1.62-.03,3.27-.03,4.92-.04,1.65,0,3.3.06,4.92.12,1.62.05,3.22.15,4.76.22,1.55.09,3.04.25,4.45.38,1.41.12,2.75.28,3.98.42,1.23.15,2.35.37,3.35.54,1,.17,1.86.34,2.57.47,1.42.28,2.23.47,2.23.47,0,0-.83.05-2.28.08-.72.01-1.6.03-2.6.03-1,0-2.13,0-3.36-.01-1.23.03-2.57.06-3.98.05-1.41,0-2.89.01-4.43-.02-1.54,0-3.13.05-4.74.03-1.61,0-3.25-.05-4.89-.04-1.64,0-3.28-.02-4.89-.05-1.61-.03-3.2-.07-4.74-.1-1.54-.01-3.03-.08-4.44-.13-1.41-.04-2.75-.09-3.98-.15-1.23-.04-2.36-.12-3.37-.18-1-.05-1.88-.12-2.6-.17-1.44-.11-2.27-.19-2.27-.19Z"/>
    <path class="cls-43" d="M306.01,598.79l-2.3-2.11-5.14-19.67c.03.54,1.08,19.69-6.35,45.2.33,0,.68-.01,1.02-.02.03,0,.07,0,.1,0h0c.14-.27,8.88-17.42,9.86-19.33.8-1.35,2.82-4.08,2.82-4.08Z"/>
    <path class="cls-43" d="M391.93,626.86s.58-11.52-2.82-17.67c2.85-4.36,2.43-10.14,2.43-10.14,0,0,12.75,15.64,20.72,34.39-6.83-2.57-20.33-6.58-20.33-6.58Z"/>
    <path class="cls-43" d="M381.03,606.39s-1.07-.18-2.93-.5c-1.86-.31-4.53-.75-7.72-1.28-1.6-.25-3.33-.52-5.16-.81-1.83-.27-3.76-.56-5.76-.86-2-.27-4.07-.55-6.16-.84-2.1-.27-4.23-.57-6.37-.79-1.07-.13-2.14-.26-3.2-.39-1.07-.11-2.13-.22-3.18-.33-1.05-.11-2.1-.22-3.13-.33-1.03-.09-2.06-.18-3.06-.27-1-.09-1.99-.18-2.96-.26-.97-.07-1.92-.14-2.84-.21-1.85-.13-3.59-.28-5.2-.35-1.61-.08-3.09-.18-4.41-.26-1.31-.05-2.46-.09-3.4-.13-1.89-.09-2.97-.15-2.97-.15,0,0,1.08-.1,2.97-.25.95-.07,2.09-.15,3.41-.25,1.32-.05,2.81-.1,4.43-.13.81-.01,1.66-.05,2.54-.04.88.01,1.78.03,2.71.04.93.02,1.89.03,2.87.05.98.03,1.97.1,2.99.15,2.03.11,4.13.21,6.25.43,1.06.1,2.13.19,3.21.29,1.07.12,2.15.24,3.23.36,2.15.25,4.3.57,6.41.86,2.11.29,4.17.69,6.18,1.02,3.99.74,7.7,1.51,10.86,2.29,1.58.36,3.02.76,4.3,1.09,1.27.34,2.38.66,3.29.93,1.82.54,2.84.9,2.84.9Z"/>
    <g>
      <path class="cls-41" d="M345.14,477.44s6.17,5.81,8.06,4.36c1.89-1.46,43.21-47.37,63.18-48.44,8.12-.92,45.27,24.33,45.27,24.33,0,0-37.92-1.86-48.22,1.03-10.3,2.89-56.64,27.61-60.25,29.05-3.61,1.44-8.05-10.32-8.05-10.32Z"/>
      <path class="cls-43" d="M352.45,489.92c-4.36-.13-7.9-8.27-9.21-11.76l-3.13-8.27,6.44,6.06c2.04,1.92,4.59,3.71,5.65,4,.45-.45,1.41-1.44,2.41-2.48,10.79-11.17,43.58-45.12,61.61-46.16.27-.03.56-.04.85-.03,9.55.29,42.06,22.21,45.73,24.7l6.01,4.09-7.26-.36s-3.55-.17-8.63-.33c-19.69-.6-33.88-.13-38.93,1.28-7.09,1.99-32.51,15.01-47.7,22.79-7.36,3.77-11.24,5.75-12.34,6.19-.48.19-.99.28-1.5.27ZM350.54,483.67c.79,1.18,1.5,1.98,1.99,2.14,1.17-.5,6.15-3.05,11.89-5.99,16.32-8.36,40.98-20.99,48.46-23.08,7.07-1.98,25.74-1.87,40.16-1.43.49.01.97.03,1.43.05-13.88-9.07-32.04-19.81-37.53-19.98-.12,0-.23,0-.33.01h-.12c-10.89.6-30.72,15.71-58.95,44.93-2.11,2.18-2.73,2.82-3.1,3.1-.99.76-2.38.84-3.9.26Z"/>
    </g>
    <g>
      <path class="cls-41" d="M322.72,475.3s-6.52,4.98-7.88,3.6c-1.36-1.38-29.68-43.35-44.35-43.65-5.96-.61-33.77,25.99-33.77,25.99,0,0,27.94-3.3,35.46-.82,7.53,2.48,41.17,25.35,43.79,26.64,2.63,1.3,6.75-11.76,6.75-11.76Z"/>
      <path class="cls-43" d="M316.27,489.19c-.42-.03-.83-.11-1.21-.3-.84-.41-3.53-2.16-9.05-5.74-10.28-6.68-29.41-19.12-34.48-20.79-.89-.29-2.75-.67-6.55-.79-10.77-.33-27.86,1.68-28.03,1.7l-6.07.72,4.42-4.22c6.57-6.28,28.52-26.76,35.11-26.56.07,0,.13,0,.2.01h.02c9.21.28,23.58,13.98,43.91,41.88.54.74,1.06,1.46,1.41,1.93,1.11-.36,3.52-1.8,5.53-3.33l5.13-3.92-1.95,6.16c-4.21,13.34-7.35,13.31-8.39,13.27ZM265.1,457.48c3.49.11,6.01.43,7.71.99,5.14,1.7,20.32,11.43,35.43,21.25,3.39,2.21,6.63,4.31,8.02,5.15.63-.75,1.53-2.46,2.45-4.61-1.18.57-2.35.95-3.28.92h0c-1.03-.03-1.68-.48-2.04-.85-.28-.29-.71-.87-2.15-2.85-24-32.93-35.4-40.04-40.74-40.2h-.08s-.14-.01-.14-.01c-2.95-.09-15.87,10.33-27.75,21.29,6.08-.58,15.51-1.3,22.58-1.09Z"/>
    </g>
  </g>
</svg>