<?xml version="1.0" encoding="UTF-8"?>
<svg id="Layer_1" data-name="Layer 1" xmlns="http://www.w3.org/2000/svg" xmlns:xlink="http://www.w3.org/1999/xlink" viewBox="0 0 870.76 1080">
  <defs>
    <style>
      .cls-1 {
        mask: url(#mask);
      }

      .cls-2 {
        fill: #f15d4e;
      }

      .cls-3 {
        filter: url(#luminosity-noclip);
      }

      .cls-4 {
        fill: #dfdfde;
      }

      .cls-5 {
        fill: #cfd0d0;
      }

      .cls-6 {
        fill: #a3c4c6;
      }

      .cls-7 {
        filter: url(#luminosity-noclip-3);
      }

      .cls-8 {
        filter: url(#luminosity-noclip-5);
      }

      .cls-9 {
        fill: url(#radial-gradient-7);
      }

      .cls-10 {
        fill: url(#radial-gradient-6);
      }

      .cls-11 {
        fill: url(#radial-gradient-5);
      }

      .cls-12 {
        fill: url(#radial-gradient-4);
      }

      .cls-13 {
        fill: url(#radial-gradient-9);
      }

      .cls-14 {
        fill: url(#radial-gradient-8);
      }

      .cls-15 {
        fill: url(#radial-gradient-3);
      }

      .cls-16 {
        fill: url(#radial-gradient-2);
      }

      .cls-17 {
        fill: url(#linear-gradient-8);
      }

      .cls-18 {
        fill: url(#linear-gradient-5);
      }

      .cls-19 {
        fill: url(#linear-gradient-6);
      }

      .cls-20 {
        fill: url(#linear-gradient-4);
      }

      .cls-21 {
        fill: url(#linear-gradient-3);
      }

      .cls-22 {
        fill: url(#linear-gradient-2);
      }

      .cls-23 {
        fill: url(#linear-gradient-9);
      }

      .cls-23, .cls-24, .cls-25 {
        mix-blend-mode: multiply;
      }

      .cls-24 {
        fill: url(#linear-gradient-7);
      }

      .cls-26 {
        fill: url(#radial-gradient);
      }

      .cls-27 {
        fill: #43b7e9;
      }

      .cls-28 {
        fill: url(#linear-gradient);
      }

      .cls-29 {
        mask: url(#mask-2);
      }

      .cls-30 {
        mask: url(#mask-3);
      }

      .cls-31 {
        mask: url(#mask-4);
      }

      .cls-32 {
        mask: url(#mask-5);
      }

      .cls-33 {
        mask: url(#mask-1);
      }

      .cls-25 {
        fill: url(#linear-gradient-11);
      }

      .cls-34 {
        fill: #c9c9c9;
      }

      .cls-35 {
        fill: #f7f8f8;
      }

      .cls-36 {
        fill: #ededee;
      }

      .cls-37 {
        fill: url(#radial-gradient-10);
      }

      .cls-38 {
        fill: #fff;
      }

      .cls-39 {
        fill: #83d2e4;
      }

      .cls-40 {
        fill: #7fc343;
      }

      .cls-41 {
        fill: url(#linear-gradient-10);
      }

      .cls-42 {
        fill: url(#linear-gradient-12);
      }

      .cls-43 {
        fill: #e6e6e5;
      }

      .cls-44 {
        fill: #acacac;
      }

      .cls-45 {
        fill: #9399a4;
      }

      .cls-46 {
        fill: #dcdbdb;
      }

      .cls-47 {
        fill: #4a4e53;
      }

      .cls-48 {
        fill: #9dbbbc;
      }
    </style>
    <radialGradient id="radial-gradient" cx="106.43" cy="996.56" fx="106.43" fy="996.56" r="99.33" gradientTransform="translate(125.19 51.18) rotate(-4.61)" gradientUnits="userSpaceOnUse">
      <stop offset="0" stop-color="#fff"/>
      <stop offset="1" stop-color="#c0dcee"/>
    </radialGradient>
    <linearGradient id="linear-gradient" x1="145.54" y1="929.13" x2="235.08" y2="929.13" gradientTransform="translate(125.19 51.18) rotate(-4.61)" gradientUnits="userSpaceOnUse">
      <stop offset="0" stop-color="#7fc343"/>
      <stop offset="1" stop-color="#529944"/>
    </linearGradient>
    <radialGradient id="radial-gradient-2" cx="172.47" cy="852.87" fx="172.47" fy="852.87" r="44.77" xlink:href="#radial-gradient"/>
    <radialGradient id="radial-gradient-3" cx="67.31" cy="946.58" fx="67.31" fy="946.58" r="79.39" xlink:href="#radial-gradient"/>
    <linearGradient id="linear-gradient-2" x1="-45.6" y1="542.35" x2="15.21" y2="542.35" gradientTransform="translate(308.2 277.97) rotate(-9.05)" gradientUnits="userSpaceOnUse">
      <stop offset="0" stop-color="#839d9e"/>
      <stop offset="1" stop-color="#99b7b8"/>
    </linearGradient>
    <radialGradient id="radial-gradient-4" cx="480.85" cy="977.83" fx="480.85" fy="977.83" r="249.22" gradientTransform="matrix(1,0,0,1,0,0)" xlink:href="#radial-gradient"/>
    <linearGradient id="linear-gradient-3" x1="465.99" y1="964.53" x2="617.46" y2="964.53" gradientTransform="matrix(1,0,0,1,0,0)" xlink:href="#linear-gradient"/>
    <radialGradient id="radial-gradient-5" cx="532.92" cy="888.15" fx="532.92" fy="888.15" r="46.12" gradientTransform="matrix(1,0,0,1,0,0)" xlink:href="#radial-gradient"/>
    <radialGradient id="radial-gradient-6" cx="609.76" cy="996.33" fx="609.76" fy="996.33" r="161.69" gradientTransform="matrix(1,0,0,1,0,0)" xlink:href="#radial-gradient"/>
    <linearGradient id="linear-gradient-4" x1="460.61" y1="828.63" x2="550" y2="828.63" gradientTransform="matrix(1,0,0,1,0,0)" xlink:href="#linear-gradient-2"/>
    <linearGradient id="linear-gradient-5" x1="-157.07" y1="-7164.7" x2="15.05" y2="-7164.7" gradientTransform="translate(-6200.56 4041.51) rotate(62.81)" xlink:href="#linear-gradient-2"/>
    <radialGradient id="radial-gradient-7" cx="11542.35" cy="-1589.22" fx="11542.35" fy="-1589.22" r="50.01" gradientTransform="translate(-11536.33 605.43) rotate(8.81)" gradientUnits="userSpaceOnUse">
      <stop offset="0" stop-color="#fff"/>
      <stop offset="1" stop-color="#cde1ef"/>
    </radialGradient>
    <radialGradient id="radial-gradient-8" cx="11586.8" cy="-1486.59" fx="11586.8" fy="-1486.59" r="75.96" xlink:href="#radial-gradient-7"/>
    <linearGradient id="linear-gradient-6" x1="-6100.18" y1="4402.9" x2="-5928.06" y2="4402.9" gradientTransform="translate(-5934.07 4041.51) rotate(117.19) scale(1 -1)" xlink:href="#linear-gradient-2"/>
    <radialGradient id="radial-gradient-9" cx="-1309.45" cy="403.19" fx="-1309.45" fy="403.19" r="50.01" gradientTransform="translate(-598.29 605.43) rotate(171.19) scale(1 -1)" xlink:href="#radial-gradient-7"/>
    <radialGradient id="radial-gradient-10" cx="-1265" cy="505.81" fx="-1265" fy="505.81" r="75.96" gradientTransform="translate(-598.29 605.43) rotate(171.19) scale(1 -1)" xlink:href="#radial-gradient-7"/>
    <filter id="luminosity-noclip" x="298.15" y="403.12" width="100.25" height="36.18" color-interpolation-filters="sRGB" filterUnits="userSpaceOnUse">
      <feFlood flood-color="#fff" result="bg"/>
      <feBlend in="SourceGraphic" in2="bg"/>
    </filter>
    <filter id="luminosity-noclip-2" x="298.15" y="-8732" width="100.25" height="32766" color-interpolation-filters="sRGB" filterUnits="userSpaceOnUse">
      <feFlood flood-color="#fff" result="bg"/>
      <feBlend in="SourceGraphic" in2="bg"/>
    </filter>
    <mask id="mask-1" x="298.15" y="-8732" width="100.25" height="32766" maskUnits="userSpaceOnUse"/>
    <linearGradient id="linear-gradient-7" x1="380.14" y1="391.3" x2="387.73" y2="433.39" gradientTransform="translate(-22.77 -8.62) rotate(1.75)" gradientUnits="userSpaceOnUse">
      <stop offset="0" stop-color="#fff"/>
      <stop offset=".47" stop-color="#868686"/>
      <stop offset="1" stop-color="#000"/>
    </linearGradient>
    <mask id="mask" x="298.15" y="403.12" width="100.25" height="36.18" maskUnits="userSpaceOnUse">
      <g class="cls-3">
        <g class="cls-33">
          <path class="cls-24" d="M298.15,403.12s19.75,7.47,28.21,23.73c3.65,2.78,4.69,1.5,11.07-.75,6.38-2.24,35.69-19.28,60.98-.33-40.1,12.09-57.58,13.99-66.73,13.44-9.15-.55-22.89-17.43-33.52-36.1Z"/>
        </g>
      </g>
    </mask>
    <linearGradient id="linear-gradient-8" x1="380.14" y1="391.3" x2="387.73" y2="433.39" gradientTransform="translate(-22.77 -8.62) rotate(1.75)" gradientUnits="userSpaceOnUse">
      <stop offset="0" stop-color="#141414"/>
      <stop offset=".47" stop-color="#2b2b2b"/>
      <stop offset="1" stop-color="#c5c5c7"/>
    </linearGradient>
    <filter id="luminosity-noclip-3" x="424.8" y="231.65" width="175.46" height="142.59" color-interpolation-filters="sRGB" filterUnits="userSpaceOnUse">
      <feFlood flood-color="#fff" result="bg"/>
      <feBlend in="SourceGraphic" in2="bg"/>
    </filter>
    <filter id="luminosity-noclip-4" x="424.8" y="-8732" width="175.46" height="32766" color-interpolation-filters="sRGB" filterUnits="userSpaceOnUse">
      <feFlood flood-color="#fff" result="bg"/>
      <feBlend in="SourceGraphic" in2="bg"/>
    </filter>
    <mask id="mask-3" x="424.8" y="-8732" width="175.46" height="32766" maskUnits="userSpaceOnUse"/>
    <linearGradient id="linear-gradient-9" x1="504.66" y1="166.34" x2="515.31" y2="343.09" gradientTransform="matrix(1,0,0,1,0,0)" xlink:href="#linear-gradient-7"/>
    <mask id="mask-2" x="424.8" y="231.65" width="175.46" height="142.59" maskUnits="userSpaceOnUse">
      <g class="cls-7">
        <g class="cls-30">
          <path class="cls-23" d="M592.86,248.75c-48.14,27.94-117.28,7.69-147.98-17.11-28.61,31.12-18.26,100.95-18.26,100.95l141.36,41.64c14.62-16.91,46.73-73.96,24.88-125.48Z"/>
        </g>
      </g>
    </mask>
    <linearGradient id="linear-gradient-10" x1="504.66" y1="166.34" x2="515.31" y2="343.09" gradientTransform="matrix(1,0,0,1,0,0)" xlink:href="#linear-gradient-8"/>
    <filter id="luminosity-noclip-5" x="207.82" y="245.77" width="144.27" height="128.94" color-interpolation-filters="sRGB" filterUnits="userSpaceOnUse">
      <feFlood flood-color="#fff" result="bg"/>
      <feBlend in="SourceGraphic" in2="bg"/>
    </filter>
    <filter id="luminosity-noclip-6" x="207.82" y="-8732" width="144.27" height="32766" color-interpolation-filters="sRGB" filterUnits="userSpaceOnUse">
      <feFlood flood-color="#fff" result="bg"/>
      <feBlend in="SourceGraphic" in2="bg"/>
    </filter>
    <mask id="mask-5" x="207.82" y="-8732" width="144.27" height="32766" maskUnits="userSpaceOnUse"/>
    <linearGradient id="linear-gradient-11" x1="274.88" y1="199.78" x2="283.58" y2="344.13" gradientTransform="matrix(1,0,0,1,0,0)" xlink:href="#linear-gradient-7"/>
    <mask id="mask-4" x="207.82" y="245.77" width="144.27" height="128.94" maskUnits="userSpaceOnUse">
      <g class="cls-8">
        <g class="cls-32">
          <path class="cls-25" d="M347.93,245.77c-36.41,15.57-114.9,20.19-137.51,12.13-11.11,68.35,16.04,98.46,30.93,116.81l109.95-65.46s3.22-48.23-3.37-63.48Z"/>
        </g>
      </g>
    </mask>
    <linearGradient id="linear-gradient-12" x1="274.88" y1="199.78" x2="283.58" y2="344.13" gradientTransform="matrix(1,0,0,1,0,0)" xlink:href="#linear-gradient-8"/>
  </defs>
  <g>
    <g>
      <g>
        <g>
          <path class="cls-26" d="M190.74,1031.9s-18.02,13.15-12.93,27.07c5.09,13.91,92.89,22.71,137.49,12.65,44.59-10.05,113.71-50.55,122.42-56.26,8.72-5.71,10.68-20.67-4.36-25.73-15.05-5.06-242.61,42.27-242.61,42.27Z"/>
          <path class="cls-47" d="M291.74,1079.07h0c-22.44,1.81-49.9.96-73.46-2.26-26.71-3.65-41.6-9.19-44.26-16.44-6.07-16.59,13.51-31.12,14.35-31.73l.7-.51.86-.18c7.58-1.58,186.12-38.64,233.04-42.42,7.72-.62,10.24-.21,11.68.28,7.84,2.64,12.85,8.13,13.74,15.05.88,6.82-2.52,14.01-8.44,17.9-8.38,5.49-78.49,46.62-123.75,56.82-6.99,1.57-15.21,2.75-24.45,3.49ZM192.48,1035.67c-2.89,2.33-14.38,12.34-10.87,21.91.61,1.65,8.84,7.25,37.76,11.21,23.01,3.15,49.83,3.97,71.72,2.21h0c8.86-.71,16.71-1.83,23.32-3.32,44.11-9.94,112.86-50.3,121.1-55.7,3.34-2.19,5.33-6.34,4.85-10.1-.49-3.85-3.36-6.76-8.29-8.41-.14-.04-1.72-.42-8.45.12-44.73,3.6-216.94,39.15-231.13,42.08Z"/>
        </g>
        <g>
          <path class="cls-40" d="M324.11,902.31s-24.24.96-26.67,15.4c-2.43,14.43.42,20.24-13.49,24.17-13.91,3.94,55.31,96.98,55.31,96.98,0,0,55.45-17.87,92.24-40.89,8.95-35.19,1.62-58.37-9.84-71.76,5.36-20.19-2.03-35.97-23.96-40.14-21.94-4.16-73.6,16.24-73.6,16.24Z"/>
          <path class="cls-28" d="M341.97,929.69s25.29,17.19,61.53,4.64c-11.85,14.52-28.99,19.77-28.99,19.77l25.28-2.8s-11.53,56.49-41.61,78.87c47.83-18.3,75.36-34.63,75.36-34.63,0,0,6.88-51.2-11.01-66.77.9-17.47,4.39-30.41-11.57-33.62-15.96-3.21-68.99,34.54-68.99,34.54Z"/>
          <path class="cls-47" d="M337.74,1043.6l-1.73-2.32c-.15-.21-15.57-20.95-30.24-43.02-30.67-46.12-28.37-52.86-27.27-56.1.71-2.09,2.26-3.58,4.35-4.17,8.43-2.39,8.62-4.2,9.55-12.89.25-2.34.53-5,1.05-8.07,2.58-15.36,23.1-18.19,29.33-18.69.16-.01.31-.02.44-.03,5.09-1.98,38.63-14.71,62.17-16.61,5.11-.41,9.51-.28,13.06.39,11.09,2.11,19.48,7.23,24.26,14.82,4.73,7.52,5.88,17.27,3.36,28.29,8.5,10.82,19.53,33.71,9.34,73.76l-.4,1.57-1.38.86c-36.8,23.03-90.86,40.58-93.15,41.31l-2.76.89ZM286.14,945.45c.14,2.75,2.94,13.13,26.77,48.9,11.56,17.36,23.5,33.78,27.87,39.74,11.43-3.86,55.94-19.49,87.2-38.7,9.13-37.64-1.91-57.82-9.38-66.56l-1.38-1.61.55-2.05c2.56-9.64,1.91-17.91-1.89-23.94-3.6-5.72-9.97-9.48-18.92-11.18-2.84-.54-6.51-.63-10.9-.28-23.79,1.92-60.09,16.16-60.45,16.31l-.64.25-.69.03s-.33.02-.83.06c-2.08.17-20.31,1.92-22,11.97-.47,2.83-.75,5.35-.98,7.58-.96,9-1.66,15.58-14.31,19.49Z"/>
        </g>
        <g>
          <path class="cls-38" d="M406.55,871.19c-2.7-20.39-13.78-29.96-33.33-27.97l-28.52,2.7s-27.76-1.22-26.04,33.46c1.72,34.68-8.53,32.53,6.89,41.36,15.42,8.83,61.65,15.18,85.08-11.22,6.15-15.67-1.38-17.94-4.08-38.33Z"/>
          <path class="cls-16" d="M364.96,868.74s7.97,7.98,3.43,18.39c-4.55,10.41-34.87,29.96-48.8,26.15,31.34,32.11,102.45,8.64,94.68-14.26-7.78-22.9-8.75-51.97-24.89-53.88-16.14-1.91-39.35,4.87-39.35,4.87l14.94,18.73Z"/>
          <path class="cls-47" d="M369.02,932.13c-18.27,1.47-36.06-2.48-45.48-7.87-10.73-6.15-11.5-9.08-10.08-18.94.72-5.05,1.81-12.68,1.17-25.74-.63-12.76,2.4-22.6,9.01-29.25,8.85-8.89,20.75-8.48,21.25-8.46l-.34,8.09c-.09,0-8.96-.23-15.24,6.15-4.89,4.97-7.11,12.73-6.6,23.07.69,13.83-.47,21.92-1.24,27.28-.43,3.02-.75,5.21-.3,6.11.6,1.22,3.57,3.05,6.4,4.66,13.94,7.98,57.57,14.11,79.56-9.87,2.99-7.96,1.86-11.37-.33-17.98-1.42-4.3-3.2-9.66-4.26-17.67-2.44-18.46-11.65-26.24-28.91-24.47l-.82-8.05c21.64-2.23,34.74,8.66,37.75,31.46.96,7.25,2.53,12,3.92,16.19,2.4,7.25,4.3,12.98-.08,24.15l-.26.67-.48.54c-11.46,12.92-28.24,18.6-44.64,19.92Z"/>
        </g>
        <path class="cls-47" d="M331.94,866.92s.95.74,2.64,1.96c.84.61,1.89,1.32,3.07,2.14,1.19.81,2.57,1.67,4.05,2.6,1.51.91,3.15,1.85,4.91,2.78,1.75.95,3.67,1.79,5.64,2.65,2,.79,4.06,1.58,6.21,2.15,1.06.33,2.16.52,3.25.78,1.1.17,2.2.43,3.31.49,2.22.32,4.43.23,6.61.14.54-.05,1.08-.14,1.61-.2.54-.07,1.08-.1,1.6-.23,1.04-.25,2.1-.38,3.09-.73,1-.29,2-.58,2.93-.97.95-.36,1.89-.7,2.75-1.17,1.77-.82,3.35-1.81,4.85-2.68.72-.5,1.4-.97,2.05-1.43.68-.43,1.28-.89,1.83-1.35,1.1-.91,2.16-1.62,2.9-2.34,1.56-1.38,2.5-2.15,2.5-2.15,0,0-.63,1.02-1.83,2.77-.57.9-1.41,1.87-2.36,3.01-.91,1.18-2.17,2.3-3.48,3.6-1.42,1.18-2.95,2.51-4.8,3.6-.88.61-1.87,1.11-2.88,1.63-.99.57-2.09.95-3.2,1.39-2.22.85-4.64,1.39-7.12,1.73-2.49.23-5.06.32-7.57,0-1.27-.1-2.5-.39-3.74-.6-1.21-.3-2.43-.59-3.6-.98-.58-.2-1.16-.39-1.74-.58-.57-.21-1.12-.45-1.68-.68-1.12-.43-2.17-.97-3.22-1.48-2.06-1.06-3.97-2.22-5.7-3.42-1.76-1.16-3.3-2.41-4.69-3.59-2.78-2.37-4.84-4.59-6.19-6.21-1.36-1.62-2.02-2.63-2.02-2.63Z"/>
        <g>
          <path class="cls-15" d="M362.71,1030.5s-48.13,27.78-118.96,24.75c-70.83-3.03-62.61-18.88-62.61-18.88,0,0-9.49-109.93,83.35-112.44,63.55-4,88.45,67.63,88.45,67.63,0,0,10.06,18.67,9.78,38.94Z"/>
          <path class="cls-38" d="M318.43,1023.7s-36.72,21.19-90.76,18.88c-54.04-2.31-47.77-14.4-47.77-14.4,0,0-7.24-83.87,63.59-85.78,48.48-3.05,67.48,51.6,67.48,51.6,0,0,7.68,14.24,7.46,29.7Z"/>
          <path class="cls-47" d="M275.17,1058.7c-10.48.84-21.11,1.04-31.6.6-37.96-1.62-59.98-7.22-65.43-16.64-1.46-2.52-1.56-5-1.11-6.79-.5-7.29-2.67-55.98,24.58-88.18,14.96-17.68,36.08-27.05,62.69-27.79,27.31-1.7,51.99,9.99,71.38,33.8,13.61,16.73,20.05,33.69,20.97,36.24,1.34,2.58,10.39,20.69,10.11,40.63l-.03,2.3-1.99,1.15c-1.44.83-35.82,20.37-89.56,24.69ZM184.89,1037.92c.02.17.12.6.68,1.28,2.46,2.97,13.07,10.08,58.35,12.01,10.16.43,20.46.24,30.61-.58,44.72-3.6,76.07-18.38,84.12-22.54-.49-18.02-9.19-34.44-9.28-34.61l-.26-.59c-.06-.17-6.25-17.62-19.86-34.27-17.91-21.9-39.61-32.22-64.51-30.65h-.14c-24.24.66-43.37,9.06-56.8,24.94-26.73,31.6-22.67,82.6-22.63,83.11l.1,1.17-.37.72Z"/>
        </g>
      </g>
      <g>
        <path class="cls-6" d="M400.45,760.73l-.19,1.42-14.95,113s-18.56,16.06-39.41,1.13l-7.12-118.89s48.01-1.51,61.66,3.34Z"/>
        <path class="cls-48" d="M338.79,757.39l.51,8.44c14.06.19,30.35,1,37.42,3.51l-.19,1.42-14.78,111.73c13.57,1.3,23.57-7.34,23.57-7.34l14.95-113,.19-1.42c-13.65-4.85-61.66-3.34-61.66-3.34Z"/>
        <path class="cls-22" d="M338.79,757.39l.27,4.48c15.29-.06,38.7.4,47.58,3.56l-.19,1.42-14.95,113s-1.38,1.19-3.8,2.62c10.44-1.11,17.62-7.31,17.62-7.31l14.95-113,.19-1.42c-13.65-4.85-61.66-3.34-61.66-3.34Z"/>
        <path class="cls-47" d="M369.93,886.25c-9.26,1.47-18.14-.78-26.39-6.69l-1.57-1.12-7.48-124.97,4.16-.13c1.99-.06,48.94-1.48,63.15,3.57l3.09,1.1-15.77,119.19-1.16,1.01c-.3.26-7.44,6.36-18.03,8.04ZM349.82,874.05c6,3.83,12.33,5.25,18.84,4.21,6.07-.97,10.79-3.85,12.86-5.31l14.45-109.26c-12-2.59-38.86-2.65-52.9-2.36l6.74,112.72Z"/>
      </g>
    </g>
    <g>
      <g>
        <path class="cls-12" d="M715.05,1021.06s18.96,11.77,14.93,26.02c-4.04,14.26-90.93,29.61-136.15,22.93-45.22-6.68-117.18-41.88-126.3-46.92-9.12-5.04-12.2-19.81,2.42-25.99,14.62-6.17,245.1,23.96,245.1,23.96Z"/>
        <path class="cls-47" d="M593.24,1074.01c-45.9-6.78-118.89-42.53-127.66-47.38-6.2-3.43-10.12-10.34-9.76-17.21.37-6.98,4.95-12.82,12.57-16.04,1.4-.59,3.88-1.19,11.63-1.15,47.07.25,227.89,23.82,235.57,24.82l.87.11.74.46c.88.54,21.5,13.57,16.69,30.56-2.1,7.44-16.54,14.07-42.9,19.72-23.25,4.98-50.57,7.88-73.09,7.76h0c-9.27-.05-17.56-.61-24.64-1.65ZM479.97,1000.32c-6.76-.04-8.3.46-8.44.51-4.79,2.02-7.43,5.14-7.63,9.01-.2,3.78,2.1,7.77,5.6,9.7,8.61,4.76,80.19,39.85,124.93,46.46,6.71.99,14.62,1.52,23.5,1.56h0c21.96.12,48.63-2.72,71.35-7.58,28.54-6.12,36.33-12.32,36.81-14.01,2.78-9.81-9.43-18.93-12.49-21.03-14.37-1.87-188.76-24.4-233.63-24.64Z"/>
      </g>
      <g>
        <path class="cls-21" d="M572.35,901.84s24.24-.86,27.74,13.35c3.5,14.21,1.1,20.21,15.26,23.09,14.16,2.88-47.88,100.85-47.88,100.85,0,0-56.63-13.66-95.05-33.86-11.56-34.42-5.99-58.09,4.43-72.3-6.86-19.73-.67-36.02,20.89-41.82,21.56-5.8,74.61,10.68,74.61,10.68Z"/>
        <path class="cls-40" d="M556.58,930.48s-23.93,19.04-61,9.24c12.9,13.59,30.38,17.54,30.38,17.54l-25.42-.89s15.73,55.46,47.41,75.53c-49.07-14.66-77.75-28.88-77.75-28.88,0,0-10.7-50.54,5.98-67.41-2.2-17.35-6.66-30,9.02-34.4,15.67-4.4,71.38,29.27,71.38,29.27Z"/>
        <path class="cls-47" d="M566.53,1043.07c-2.33-.56-57.56-14.01-95.98-34.21l-1.43-.75-.52-1.54c-13.16-39.17-3.88-62.83,3.78-74.25-3.34-10.81-2.92-20.62,1.23-28.47,4.19-7.93,12.18-13.67,23.08-16.6,3.49-.94,7.86-1.4,13-1.37,23.61.12,58.01,10.31,63.24,11.9.13,0,.28,0,.44,0,6.25.03,26.92,1.32,30.65,16.44.75,3.02,1.23,5.65,1.65,7.96,1.58,8.6,1.9,10.38,10.49,12.13,2.13.43,3.78,1.79,4.65,3.83,1.35,3.15,4.13,9.7-22.99,57.99-12.98,23.1-26.79,44.95-26.93,45.17l-1.55,2.45-2.82-.68ZM597.71,923.64c-.4-2.2-.86-4.7-1.55-7.49-2.44-9.89-20.76-10.27-22.84-10.28-.5,0-.81,0-.84,0l-.69.02-.65-.2c-.37-.11-37.63-11.6-61.51-11.73-4.41-.02-8.06.34-10.85,1.1-8.8,2.36-14.87,6.59-18.03,12.57-3.33,6.29-3.36,14.6-.08,24.01l.7,2.01-1.26,1.71c-6.8,9.27-16.29,30.23-4.36,67.07,32.61,16.8,78.17,29.05,89.85,32.05,3.91-6.26,14.59-23.54,24.81-41.71,21.08-37.46,23.09-48.02,23.02-50.77-12.92-2.96-14.11-9.46-15.74-18.37Z"/>
      </g>
      <g>
        <path class="cls-11" d="M572.52,872.17c-5.98-34.2-32.78-26.88-32.78-26.88l-28.41,3.67c-19.51,2.37-28.21,14.15-26.34,34.63,1.87,20.48-4.97,24.35,4.48,38.28,28.68,20.58,72.37,4.18,85.46-7.84,13.09-12.01,3.56-7.66-2.42-41.86Z"/>
        <path class="cls-38" d="M525.02,872.01s-6.01,9.54.72,18.69c6.73,9.15,40.62,21.52,53.37,14.73-23.48,38.23-98.01,31.05-95.49,7,2.53-24.05-2.94-52.62,12.38-58.05,15.32-5.43,39.45-3.94,39.45-3.94l-10.43,21.57Z"/>
        <path class="cls-47" d="M535.05,934.73c18.15-2.6,34.62-10.38,42.62-17.72,9.11-8.37,9.21-11.39,5.66-20.7-1.82-4.77-4.57-11.97-6.82-24.84-2.2-12.58-7.33-21.51-15.25-26.53-10.59-6.72-22.11-3.69-22.59-3.56l2.11,7.81c.08-.02,8.69-2.2,16.22,2.63,5.87,3.77,9.75,10.85,11.53,21.04,2.38,13.64,5.3,21.28,7.23,26.33,1.09,2.85,1.88,4.91,1.64,5.89-.32,1.33-2.81,3.76-5.21,5.96-11.83,10.87-53.04,26.48-79.78,7.95-4.68-7.1-4.33-10.68-3.65-17.61.44-4.51.99-10.13.25-18.17-1.7-18.54,5.57-28.16,22.79-30.25l-.98-8.03c-21.6,2.6-31.97,16.12-29.87,39.02.67,7.28.18,12.26-.25,16.65-.74,7.6-1.32,13.61,5.41,23.54l.41.6.58.42c14.03,10.07,31.65,11.91,47.93,9.57Z"/>
      </g>
      <path class="cls-47" d="M563.51,865.28s-.83.88-2.31,2.35c-.73.73-1.66,1.6-2.7,2.59-1.05.99-2.28,2.05-3.6,3.2-1.35,1.13-2.83,2.32-4.42,3.51-1.58,1.21-3.35,2.34-5.16,3.5-1.84,1.09-3.77,2.19-5.8,3.09-1,.49-2.05.85-3.08,1.28-1.06.34-2.11.76-3.19,1-2.14.65-4.34.92-6.51,1.17-.55.03-1.09.03-1.63.05-.54.01-1.08.07-1.61.02-1.07-.08-2.13-.05-3.17-.24-1.04-.13-2.06-.26-3.05-.51-.99-.21-1.97-.4-2.89-.73-1.88-.53-3.59-1.26-5.21-1.89-.79-.38-1.54-.75-2.25-1.09-.74-.32-1.4-.68-2.02-1.04-1.23-.73-2.38-1.27-3.23-1.86-1.75-1.12-2.8-1.73-2.8-1.73,0,0,.78.91,2.23,2.45.7.8,1.68,1.63,2.8,2.6,1.08,1.03,2.5,1.94,4,3.01,1.58.94,3.3,2.01,5.3,2.8.97.47,2.02.81,3.1,1.16,1.06.41,2.21.61,3.37.87,2.32.5,4.8.65,7.31.6,2.49-.16,5.04-.47,7.47-1.19,1.24-.29,2.4-.77,3.59-1.17,1.15-.48,2.31-.96,3.4-1.53.54-.28,1.09-.57,1.63-.85.53-.3,1.04-.62,1.55-.93,1.05-.6,2-1.3,2.95-1.96,1.87-1.37,3.58-2.81,5.1-4.26,1.55-1.42,2.88-2.9,4.07-4.28,2.37-2.77,4.06-5.29,5.15-7.1,1.09-1.81,1.59-2.91,1.59-2.91Z"/>
      <g>
        <path class="cls-38" d="M543.47,1032.56s50.08,24.09,120.48,15.76c70.4-8.33,61.02-23.52,61.02-23.52,0,0,1.22-110.34-91.55-105.87-63.67.77-83.13,74.07-83.13,74.07,0,0-8.64,19.37-6.83,39.56Z"/>
        <path class="cls-10" d="M587.11,1022.45s38.21,18.38,91.93,12.03c53.71-6.35,46.56-17.94,46.56-17.94,0,0,.93-84.18-69.85-80.77-48.57.59-63.42,56.51-63.42,56.51,0,0-6.59,14.78-5.21,30.18Z"/>
        <path class="cls-47" d="M541.72,1036.21l-2.07-1-.21-2.29c-1.77-19.86,5.89-38.6,7.03-41.27.73-2.61,5.88-20.01,18.2-37.71,17.54-25.2,41.28-38.71,68.64-39.06,26.59-1.26,48.35,6.5,64.6,23.01,29.58,30.07,31.06,78.79,31.12,86.09.58,1.75.67,4.23-.6,6.86-4.74,9.8-26.27,17.03-64,21.49-10.43,1.23-21.05,1.83-31.56,1.77-53.91-.29-89.66-17.19-91.15-17.91ZM720.92,1025.93v-1.17c.02-.51.24-51.68-28.78-81.18-14.59-14.83-34.29-21.77-58.51-20.6h-.14c-24.95.31-45.82,12.22-62.03,35.4-12.33,17.63-17.19,35.49-17.24,35.67l-.21.61c-.08.18-7.52,17.2-6.65,35.2,8.34,3.54,40.71,15.94,85.57,16.17,10.18.05,20.46-.53,30.57-1.72,45.01-5.32,55.06-13.21,57.29-16.36.51-.72.58-1.16.58-1.33l-.43-.69Z"/>
      </g>
      <g>
        <path class="cls-20" d="M460.61,784.87l.42,1.37,49.9,95.02s20.91,12.84,39.07-5.28l-29.08-104.41s-47.62,6.29-60.3,13.29Z"/>
        <path class="cls-48" d="M520.92,771.58l.87,8.41c-13.84,2.47-29.79,5.9-36.36,9.53l.42,1.37,49.52,93.79c-13.18,3.48-24.45-3.42-24.45-3.42l-49.9-95.02-.42-1.37c12.68-7,60.3-13.29,60.3-13.29Z"/>
        <path class="cls-6" d="M520.92,771.58l.46,4.46c-15.09,2.42-38.12,6.67-46.37,11.22l.42,1.37,49.89,95.02s1.56.95,4.18,1.97c-10.48.6-18.57-4.36-18.57-4.36l-49.9-95.02-.42-1.37c12.68-7,60.3-13.29,60.3-13.29Z"/>
        <path class="cls-47" d="M508.81,884.71l-1.31-.8-51.71-101,2.87-1.58c13.2-7.29,59.76-13.5,61.73-13.76l4.13-.55,29.71,110.46-1.36,1.36c-7.19,7.17-15.58,10.83-24.96,10.88-10.72.05-18.76-4.81-19.09-5.01ZM517.32,776.16c-13.9,1.99-40.4,6.41-51.82,10.91l48.8,91.41c2.29,1.11,7.41,3.18,13.55,3.15,6.59-.03,12.61-2.46,17.91-7.21l-28.45-98.26Z"/>
      </g>
    </g>
  </g>
  <g>
    <g>
      <path class="cls-48" d="M198.06,596.3s-36.75,119.52-56.19,203.6c0,0-36.55,11.07-53.93-20.01,0,0,.33-43.77,80.18-190.58,14.24-4.79,25.7-5.49,29.94,6.99Z"/>
      <path class="cls-18" d="M114.19,770.49s-1.28-39.09,58.59-179.73c-.49.16-.97.31-1.46.47-79.85,146.81-83.37,188.66-83.37,188.66,16.79,30.03,51.48,20.71,53.8,20.05-8.87-7.16-19.02-16.95-27.55-29.44Z"/>
      <path class="cls-47" d="M83.74,780.53l.31-1.46c.42-2.02,17.1-70.41,80.58-191.66l.75-1.37,1.48-.5c7.79-2.62,28.5-9.58,34.98,9.48l.46,1.35-.5,1.33c-.47,1.24-36.88,120.24-56.04,203.1l-.52,2.24-2.2.67c-.4.12-39.83,11.61-58.55-21.87l-.73-1.3ZM169.25,592.29c-63.1,133.65-74.71,177.99-77.06,186.99,13.64,22.57,38.77,19.04,46.36,17.36,18.46-78.5,50.11-186.43,55.27-200.32-2.49-5.87-9.39-8.86-24.56-4.02Z"/>
    </g>
    <g>
      <g>
        <path class="cls-9" d="M70.67,776.6c-18.33,21.7-10.94,43.55,10.48,61.65,21.41,18.09,53.63,15.18,71.97-6.52,18.33-21.69,19.58-45.22-1.83-63.32-21.41-18.09-62.28-13.51-80.62,8.19Z"/>
        <path class="cls-38" d="M72.06,774.3c-13.27,15.7-14.72,35.85.78,48.95,15.5,13.1,45.62,6.65,58.9-9.05,13.27-15.7,14.17-32.73-1.33-45.83-15.5-13.1-45.08-9.78-58.35,5.93Z"/>
        <path class="cls-47" d="M78.9,840.92c-11.82-9.98-18.98-20.55-21.31-31.42-2.59-12.09.92-23.92,10.41-35.16,8.14-9.63,20.62-16.48,35.15-19.3,19.23-3.73,38.07.27,50.4,10.69,21.89,18.5,22.73,44.01,2.25,68.25-8.14,9.63-19.39,16.24-31.68,18.63-16.22,3.14-32.7-1.12-45.21-11.69ZM73.35,778.86c-19.64,23.25-5.37,43.68,10.07,56.72,10.89,9.2,25.24,12.91,39.37,10.17,10.73-2.08,20.56-7.86,27.67-16.27,17.92-21.2,17.4-42.48-1.42-58.39-10.57-8.93-27.64-12.44-44.56-9.17-12.97,2.51-24.02,8.53-31.13,16.94Z"/>
      </g>
      <g>
        <path class="cls-38" d="M23.82,859.72c21.92-43.04,63.87-57.98,63.87-57.98l57.77,11.8c29.69,24.38,45.72,75.88,40.13,103.94-5.58,28.06-15.65,35.03-37.98,29.2-15.52,22.29,1.08,36.03-13.03,49.33-11.66,11-35.28,14.6-46.89-2.83-8.47,1.57-27.4-5.56-37.1-19.54-11.29-1.98-22.97-4.33-29.03-28.74-17.95-11.7-25.35-30.99,2.25-85.19Z"/>
        <path class="cls-14" d="M145.46,813.54l-7.57-1.55c18.98,26.54,28.26,63.78,23.81,86.14-5.58,28.06-8.51,26.44-30.84,20.62-15.52,22.29-17.17,35.26-20.14,54.43-1.49,9.6-10.51,17.48-24.68,10.85-.59,3.22-1.39,6.33-2.34,9.31,1.49.1,2.83.06,3.98-.16,11.61,17.43,35.23,13.82,46.89,2.83,14.11-13.3-2.49-27.04,13.03-49.33,22.33,5.82,32.39-1.14,37.98-29.2,5.58-28.06-10.44-79.55-40.13-103.94Z"/>
        <path class="cls-47" d="M144.98,950.52c-.63-.19-6.43-2.03-15.47-8.87l4.88-6.45c7.88,5.96,12.88,7.56,12.93,7.58l-2.33,7.75Z"/>
        <path class="cls-47" d="M144.66,920.89c-1.05,1.92-2.12,3.81-3.2,5.68l-3.21,5.59c-2.14,3.71-4.22,7.41-6.21,11.13l-1.45,2.81-1.39,2.82-1.3,2.85c-.43.95-.81,1.92-1.21,2.87-.38.97-.74,1.93-1.07,2.91-.19.48-.31.98-.47,1.47-.17.49-.31.98-.43,1.48-.27.99-.5,1.98-.69,2.98-.08.5-.18,1-.25,1.51l-.15,1.52-2.37-.58c.86-1.22,1.8-2.38,2.7-3.58.94-1.17,1.87-2.34,2.88-3.47-.49,1.43-1.04,2.82-1.6,4.21-.59,1.37-1.14,2.76-1.78,4.11l-1.91,4.03-.46-4.61-.17-1.71c-.03-.57-.04-1.14-.05-1.72.03-1.14.08-2.29.26-3.41.13-1.13.36-2.24.61-3.34l.4-1.64.48-1.61c.68-2.13,1.49-4.21,2.41-6.22.92-2.01,1.95-3.97,3.04-5.88,2.21-3.81,4.7-7.41,7.46-10.8.68-.86,1.41-1.67,2.12-2.49.72-.82,1.44-1.64,2.21-2.42,1.51-1.58,3.08-3.1,4.78-4.49Z"/>
        <path class="cls-47" d="M103.87,1008.85c-7.98-1.24-14.69-5.17-19.58-11.46-10.85.33-28.01-7.61-37.49-20.09-10.83-1.95-23.66-5.32-30.25-29.94-22.76-15.8-22.06-41.92,2.18-89.52,22.39-43.97,78.64-60.86,80.42-61.5l-11.58,9.16c-.41.15-40.74,14.99-61.63,56.01-29.05,57.04-17.11,71.19-3.64,79.96l1.33.87.38,1.55c5.5,22.17,15.36,23.9,25.8,25.73l1.66.29.96,1.39c9.15,13.18,26.59,19.05,33.04,17.86l2.62-.49,1.48,2.22c4.89,7.34,11.73,9.55,16.6,10.1,8.51.97,17.99-2.16,24.15-7.97,5.47-5.16,5.19-10.03,4.76-17.4-.48-8.31-1.07-18.66,7.72-31.29l1.61-2.32,2.73.71c9.62,2.51,16.24,2.34,20.83-.54,5.51-3.45,9.38-11.57,12.16-25.54,5.4-27.11-10.35-76.71-38.73-100.02l-5.75-12.69c14.32,11.76,37.47,36.79,45.41,58.78,7.29,20.17,9.91,40.92,7,55.51-3.29,16.53-8.16,26.04-15.8,30.82-6.07,3.8-13.85,4.52-24.32,2.2-5.63,9.25-5.2,16.7-4.79,23.91.45,7.87.92,16.01-7.29,23.76-7.83,7.38-19.85,11.35-30.62,10.12-.47-.05-.93-.12-1.39-.19Z"/>
        <path class="cls-47" d="M82.34,992.5s0-.24-.01-.68c-.01-.5,0-1.11.02-1.93.05-1.61.17-3.87.44-6.55.15-1.34.3-2.78.52-4.3.21-1.52.45-3.11.76-4.75.27-1.64.64-3.32.99-5.02.35-1.7.81-3.41,1.21-5.13.47-1.7.94-3.39,1.4-5.06.52-1.65,1.03-3.27,1.53-4.84.55-1.55,1.08-3.04,1.58-4.46.49-1.42,1.06-2.72,1.53-3.94.49-1.21.91-2.33,1.36-3.3.43-.97.81-1.81,1.12-2.51.62-1.39.97-2.18.97-2.18,0,0-.23.84-.64,2.3-.2.73-.45,1.62-.74,2.64-.3,1.01-.55,2.18-.86,3.44-.29,1.27-.66,2.62-.93,4.08-.29,1.45-.59,2.99-.91,4.57-.26,1.59-.52,3.24-.79,4.91-.21,1.68-.42,3.38-.63,5.08-.14,1.71-.35,3.41-.44,5.08-.1,1.68-.22,3.32-.24,4.92-.07,1.59-.07,3.13-.06,4.58,0,1.45.06,2.82.1,4.08.12,2.52.31,4.59.48,6.02.09.7.16,1.27.22,1.59.06.36.09.56.09.56l-8.05.79Z"/>
        <path class="cls-47" d="M45.64,973.2s0-.24-.01-.68c-.01-.5,0-1.11.02-1.93.05-1.6.17-3.87.44-6.55.15-1.34.3-2.78.52-4.3.21-1.52.45-3.11.76-4.75.27-1.64.64-3.32.99-5.02.35-1.7.81-3.41,1.21-5.13.47-1.7.94-3.39,1.4-5.06.52-1.65,1.03-3.27,1.53-4.84.55-1.55,1.08-3.04,1.58-4.46.49-1.42,1.06-2.72,1.53-3.94.49-1.21.91-2.33,1.36-3.3.43-.97.81-1.81,1.12-2.51.62-1.39.97-2.18.97-2.18,0,0-.23.84-.64,2.3-.2.73-.45,1.62-.74,2.64-.3,1.01-.55,2.18-.86,3.44-.29,1.27-.66,2.62-.94,4.08-.29,1.45-.59,2.99-.9,4.57-.26,1.59-.52,3.24-.79,4.91-.21,1.68-.42,3.38-.63,5.08-.14,1.71-.35,3.41-.44,5.08-.1,1.68-.22,3.32-.24,4.92-.06,1.59-.07,3.13-.06,4.58,0,1.45.06,2.82.1,4.08.12,2.52.31,4.59.48,6.02.09.7.16,1.27.22,1.59.06.36.09.56.09.56l-8.05.79Z"/>
        <path class="cls-47" d="M17.02,948.9s0-.24-.01-.68c-.01-.5,0-1.11.02-1.93.05-1.61.17-3.87.44-6.54.15-1.34.3-2.78.52-4.3.22-1.52.45-3.11.76-4.75.27-1.64.64-3.32.99-5.02.35-1.7.81-3.41,1.21-5.13.47-1.7.94-3.39,1.4-5.06.52-1.65,1.03-3.27,1.53-4.84.55-1.55,1.08-3.04,1.58-4.46.49-1.42,1.06-2.72,1.53-3.94.49-1.21.91-2.33,1.36-3.3.43-.97.81-1.82,1.12-2.51.62-1.39.97-2.18.97-2.18,0,0-.23.84-.64,2.3-.2.73-.45,1.62-.74,2.63-.3,1.01-.55,2.18-.86,3.44-.29,1.27-.66,2.62-.94,4.08-.29,1.45-.59,2.99-.9,4.57-.26,1.59-.52,3.24-.79,4.91-.21,1.68-.42,3.38-.63,5.08-.14,1.71-.34,3.41-.44,5.08-.1,1.68-.22,3.32-.24,4.92-.06,1.59-.07,3.13-.06,4.58,0,1.45.06,2.82.1,4.08.12,2.52.31,4.59.48,6.02.09.7.16,1.27.22,1.59.06.36.09.56.09.56l-8.05.79Z"/>
      </g>
    </g>
  </g>
  <g>
    <path class="cls-46" d="M826.04,423.27c-11.07,215.79-195.03,381.76-410.82,370.68-77.57-3.98-148.67-30.31-207.48-72.41-104.75-75-170.3-200.15-163.21-338.37C55.6,167.35,239.52,1.43,455.31,12.5c60.45,3.1,116.99,19.78,166.84,46.93,128.06,69.69,211.86,208.48,203.89,363.85Z"/>
    <path class="cls-34" d="M826.04,423.27c-11.07,215.79-195.03,381.76-410.82,370.68-77.57-3.98-148.67-30.31-207.48-72.41C433.44,488.41,557.86,231.73,622.15,59.42c128.06,69.69,211.86,208.48,203.89,363.85Z"/>
    <path class="cls-44" d="M734.63,133.09C662.47,53.13,563.49,6.06,455.93.54c-107.56-5.52-210.83,31.18-290.79,103.33C85.18,176.02,38.1,274.99,32.58,382.55c-5.52,107.57,31.18,210.85,103.34,290.81,72.16,79.96,171.13,127.03,278.69,132.55,107.56,5.52,210.83-31.18,290.79-103.33,79.96-72.16,127.04-171.13,132.56-278.7,5.52-107.56-31.18-210.82-103.34-290.78ZM415.23,793.96c-215.8-11.07-381.78-194.97-370.71-410.8C55.59,167.37,239.52,1.41,455.32,12.48c215.8,11.07,381.78,194.97,370.71,410.77-11.07,215.83-195.01,381.78-410.8,370.71Z"/>
    <path class="cls-35" d="M826.04,423.27L44.53,383.18C55.6,167.35,239.52,1.43,455.31,12.5c60.45,3.1,116.99,19.78,166.84,46.93,128.06,69.69,211.86,208.48,203.89,363.85Z"/>
    <path class="cls-36" d="M826.04,423.27l-372.51-19.11c79.2-128.56,133.11-249.53,168.62-344.74,128.06,69.69,211.86,208.48,203.89,363.85Z"/>
    <path class="cls-43" d="M777.31,420.77c-9.69,188.89-170.66,334.19-359.59,324.5-65.52-3.36-125.83-24.92-176.2-59.6-94.85-65.16-154.63-176.62-148.3-299.99C102.91,196.75,263.92,51.49,452.81,61.18c55.18,2.83,106.61,18.54,151.53,44.12,108.99,61.95,179.83,181.69,172.96,315.47Z"/>
    <path class="cls-4" d="M777.31,420.77c-9.69,188.89-170.66,334.19-359.59,324.5-65.52-3.36-125.83-24.92-176.2-59.6,186.11-203.19,298.19-419.8,362.83-580.37,108.99,61.95,179.83,181.69,172.96,315.47Z"/>
    <polygon class="cls-5" points="759.89 422.02 740.36 442.71 150.32 412.44 133.01 389.86 152.54 369.16 742.58 399.43 759.89 422.02"/>
    <polygon class="cls-35" points="759.89 422.02 740.36 442.71 150.32 412.44 133.01 389.86 759.89 422.02"/>
  </g>
  <g>
    <g>
      <path class="cls-48" d="M672.7,596.3s36.75,119.52,56.19,203.6c0,0,36.55,11.07,53.93-20.01,0,0-.33-43.77-80.18-190.58-14.24-4.79-25.7-5.49-29.94,6.99Z"/>
      <path class="cls-19" d="M756.57,770.49s1.28-39.09-58.59-179.73c.49.16.97.31,1.46.47,79.85,146.81,83.37,188.66,83.37,188.66-16.79,30.03-51.48,20.71-53.8,20.05,8.87-7.16,19.02-16.95,27.55-29.44Z"/>
      <path class="cls-47" d="M786.29,781.83c-18.72,33.48-58.16,21.99-58.55,21.87l-2.2-.67-.52-2.24c-19.16-82.86-55.58-201.85-56.04-203.1l-.5-1.33.46-1.35c6.48-19.06,27.18-12.1,34.98-9.48l1.48.5.75,1.37c63.48,121.26,80.15,189.64,80.58,191.66l.31,1.46-.73,1.3ZM676.95,596.31c5.15,13.89,36.8,121.82,55.27,200.32,7.58,1.68,32.72,5.21,46.36-17.36-2.35-9-13.96-53.33-77.06-186.99-15.17-4.83-22.07-1.85-24.56,4.02Z"/>
    </g>
    <g>
      <g>
        <path class="cls-13" d="M800.08,776.6c18.33,21.7,10.94,43.55-10.48,61.65-21.41,18.09-53.63,15.18-71.97-6.52-18.33-21.69-19.58-45.22,1.83-63.32,21.41-18.09,62.28-13.51,80.62,8.19Z"/>
        <path class="cls-38" d="M798.7,774.3c13.27,15.7,14.72,35.85-.78,48.95-15.5,13.1-45.62,6.65-58.9-9.05-13.27-15.7-14.17-32.73,1.33-45.83,15.5-13.1,45.08-9.78,58.35,5.93Z"/>
        <path class="cls-47" d="M746.64,852.62c-12.29-2.38-23.55-9-31.68-18.63-20.48-24.24-19.64-49.75,2.25-68.25,12.33-10.42,31.18-14.42,50.4-10.69,14.53,2.82,27.01,9.67,35.15,19.3,9.5,11.24,13,23.07,10.41,35.16-2.33,10.86-9.5,21.43-21.31,31.42-12.51,10.57-28.99,14.84-45.21,11.69ZM766.28,761.92c-16.91-3.28-33.98.23-44.56,9.17-18.82,15.9-19.33,37.18-1.42,58.39,7.11,8.41,16.94,14.19,27.67,16.27,14.13,2.74,28.48-.97,39.37-10.17,15.43-13.04,29.71-33.47,10.07-56.72-7.11-8.41-18.16-14.43-31.13-16.94Z"/>
      </g>
      <g>
        <path class="cls-38" d="M846.94,859.72c-21.92-43.04-63.87-57.98-63.87-57.98l-57.77,11.8c-29.69,24.38-45.72,75.88-40.13,103.94,5.58,28.06,15.65,35.03,37.98,29.2,15.52,22.29-1.08,36.03,13.03,49.33,11.66,11,35.28,14.6,46.89-2.83,8.47,1.57,27.4-5.56,37.1-19.54,11.29-1.98,22.97-4.33,29.03-28.74,17.95-11.7,25.35-30.99-2.25-85.19Z"/>
        <path class="cls-37" d="M725.29,813.54l7.57-1.55c-18.98,26.54-28.26,63.78-23.81,86.14,5.58,28.06,8.51,26.44,30.84,20.62,15.52,22.29,17.17,35.26,20.14,54.43,1.49,9.6,10.51,17.48,24.68,10.85.59,3.22,1.39,6.33,2.34,9.31-1.49.1-2.83.06-3.98-.16-11.61,17.43-35.23,13.82-46.89,2.83-14.11-13.3,2.49-27.04-13.03-49.33-22.33,5.82-32.39-1.14-37.98-29.2-5.58-28.06,10.44-79.55,40.13-103.94Z"/>
        <path class="cls-47" d="M725.77,950.52c.63-.19,6.43-2.03,15.47-8.87l-4.88-6.45c-7.88,5.96-12.88,7.56-12.93,7.58l2.33,7.75Z"/>
        <path class="cls-47" d="M726.1,920.89c1.05,1.92,2.12,3.81,3.2,5.68l3.21,5.59c2.14,3.71,4.22,7.41,6.21,11.13l1.45,2.81,1.39,2.82,1.3,2.85c.43.95.81,1.92,1.21,2.87.38.97.74,1.93,1.07,2.91.19.48.31.98.47,1.47.17.49.31.98.43,1.48.27.99.5,1.98.69,2.98.08.5.18,1,.25,1.51l.15,1.52,2.37-.58c-.86-1.22-1.8-2.38-2.7-3.58-.94-1.17-1.87-2.34-2.88-3.47.49,1.43,1.04,2.82,1.6,4.21.59,1.37,1.14,2.76,1.78,4.11l1.91,4.03.46-4.61.17-1.71c.03-.57.04-1.14.05-1.72-.03-1.14-.08-2.29-.26-3.41-.13-1.13-.36-2.24-.61-3.34l-.4-1.64-.48-1.61c-.68-2.13-1.49-4.21-2.41-6.22-.92-2.01-1.95-3.97-3.04-5.88-2.21-3.81-4.7-7.41-7.46-10.8-.68-.86-1.41-1.67-2.12-2.49-.72-.82-1.44-1.64-2.21-2.42-1.51-1.58-3.08-3.1-4.78-4.49Z"/>
        <path class="cls-47" d="M766.89,1008.85c7.98-1.24,14.69-5.17,19.58-11.46,10.85.33,28.01-7.61,37.49-20.09,10.83-1.95,23.66-5.32,30.25-29.94,22.76-15.8,22.06-41.92-2.18-89.52-22.39-43.97-78.64-60.86-80.42-61.5l11.58,9.16c.41.15,40.74,14.99,61.63,56.01,29.05,57.04,17.11,71.19,3.64,79.96l-1.33.87-.38,1.55c-5.5,22.17-15.36,23.9-25.8,25.73l-1.66.29-.96,1.39c-9.15,13.18-26.59,19.05-33.04,17.86l-2.62-.49-1.48,2.22c-4.89,7.34-11.73,9.55-16.6,10.1-8.51.97-17.99-2.16-24.15-7.97-5.47-5.16-5.19-10.03-4.76-17.4.48-8.31,1.07-18.66-7.72-31.29l-1.61-2.32-2.73.71c-9.62,2.51-16.24,2.34-20.83-.54-5.51-3.45-9.38-11.57-12.16-25.54-5.4-27.11,10.35-76.71,38.73-100.02l5.75-12.69c-14.32,11.76-37.47,36.79-45.41,58.78-7.29,20.17-9.91,40.92-7,55.51,3.29,16.53,8.16,26.04,15.8,30.82,6.07,3.8,13.85,4.52,24.32,2.2,5.63,9.25,5.2,16.7,4.79,23.91-.45,7.87-.92,16.01,7.29,23.76,7.83,7.38,19.85,11.35,30.62,10.12.47-.05.93-.12,1.39-.19Z"/>
        <path class="cls-47" d="M788.41,992.5s0-.24.01-.68c.01-.5,0-1.11-.02-1.93-.05-1.61-.17-3.87-.44-6.55-.15-1.34-.3-2.78-.52-4.3-.21-1.52-.45-3.11-.76-4.75-.27-1.64-.64-3.32-.99-5.02-.35-1.7-.81-3.41-1.21-5.13-.47-1.7-.94-3.39-1.4-5.06-.52-1.65-1.03-3.27-1.53-4.84-.55-1.55-1.08-3.04-1.58-4.46-.49-1.42-1.06-2.72-1.53-3.94-.49-1.21-.91-2.33-1.36-3.3-.43-.97-.81-1.81-1.12-2.51-.62-1.39-.97-2.18-.97-2.18,0,0,.23.84.64,2.3.2.73.45,1.62.74,2.64.3,1.01.55,2.18.86,3.44.29,1.27.66,2.62.93,4.08.29,1.45.59,2.99.91,4.57.26,1.59.52,3.24.79,4.91.21,1.68.42,3.38.63,5.08.14,1.71.35,3.41.44,5.08.1,1.68.22,3.32.24,4.92.07,1.59.07,3.13.06,4.58,0,1.45-.06,2.82-.1,4.08-.12,2.52-.31,4.59-.48,6.02-.09.7-.16,1.27-.22,1.59-.06.36-.09.56-.09.56l8.05.79Z"/>
        <path class="cls-47" d="M825.12,973.2s0-.24.01-.68c.01-.5,0-1.11-.02-1.93-.05-1.6-.17-3.87-.44-6.55-.15-1.34-.3-2.78-.52-4.3-.21-1.52-.45-3.11-.76-4.75-.27-1.64-.64-3.32-.99-5.02-.35-1.7-.81-3.41-1.21-5.13-.47-1.7-.94-3.39-1.4-5.06-.52-1.65-1.03-3.27-1.53-4.84-.55-1.55-1.08-3.04-1.58-4.46-.49-1.42-1.06-2.72-1.53-3.94-.49-1.21-.91-2.33-1.36-3.3-.43-.97-.81-1.81-1.12-2.51-.62-1.39-.97-2.18-.97-2.18,0,0,.23.84.64,2.3.2.73.45,1.62.74,2.64.3,1.01.55,2.18.86,3.44.29,1.27.66,2.62.94,4.08.29,1.45.59,2.99.9,4.57.26,1.59.52,3.24.79,4.91.21,1.68.42,3.38.63,5.08.14,1.71.35,3.41.44,5.08.1,1.68.22,3.32.24,4.92.06,1.59.07,3.13.06,4.58,0,1.45-.06,2.82-.1,4.08-.12,2.52-.31,4.59-.48,6.02-.09.7-.16,1.27-.22,1.59-.06.36-.09.56-.09.56l8.05.79Z"/>
        <path class="cls-47" d="M853.74,948.9s0-.24.01-.68c.01-.5,0-1.11-.02-1.93-.05-1.61-.17-3.87-.44-6.54-.15-1.34-.3-2.78-.52-4.3-.22-1.52-.45-3.11-.76-4.75-.27-1.64-.64-3.32-.99-5.02-.35-1.7-.81-3.41-1.21-5.13-.47-1.7-.94-3.39-1.4-5.06-.52-1.65-1.03-3.27-1.53-4.84-.55-1.55-1.08-3.04-1.58-4.46-.49-1.42-1.06-2.72-1.53-3.94-.49-1.21-.91-2.33-1.36-3.3-.43-.97-.81-1.82-1.12-2.51-.62-1.39-.97-2.18-.97-2.18,0,0,.23.84.64,2.3.2.73.45,1.62.74,2.63.3,1.01.55,2.18.86,3.44.29,1.27.66,2.62.94,4.08.29,1.45.59,2.99.9,4.57.26,1.59.52,3.24.79,4.91.21,1.68.42,3.38.63,5.08.14,1.71.34,3.41.44,5.08.1,1.68.22,3.32.24,4.92.06,1.59.07,3.13.06,4.58,0,1.45-.06,2.82-.1,4.08-.12,2.52-.31,4.59-.48,6.02-.09.7-.16,1.27-.22,1.59-.06.36-.09.56-.09.56l8.05.79Z"/>
      </g>
    </g>
  </g>
  <g>
    <g class="cls-1">
      <path class="cls-17" d="M298.15,403.12s19.75,7.47,28.21,23.73c3.65,2.78,4.69,1.5,11.07-.75,6.38-2.24,35.69-19.28,60.98-.33-40.1,12.09-57.58,13.99-66.73,13.44-9.15-.55-22.89-17.43-33.52-36.1Z"/>
    </g>
    <g class="cls-29">
      <path class="cls-41" d="M592.86,248.75c-48.14,27.94-117.28,7.69-147.98-17.11-28.61,31.12-18.26,100.95-18.26,100.95l141.36,41.64c14.62-16.91,46.73-73.96,24.88-125.48Z"/>
    </g>
    <g class="cls-31">
      <path class="cls-42" d="M347.93,245.77c-36.41,15.57-114.9,20.19-137.51,12.13-11.11,68.35,16.04,98.46,30.93,116.81l109.95-65.46s3.22-48.23-3.37-63.48Z"/>
    </g>
    <path class="cls-47" d="M351.11,274.27c.8,2.91,1.25,5.91,1.61,8.92.33,3.01.52,6.04.58,9.08.07,3.04-.06,6.08-.22,9.12-.21,3.03-.48,6.07-.93,9.09-.43,3.02-.96,6.02-1.58,9.01-.33,1.49-.64,2.99-1,4.47l-1.17,4.43c-.88,2.93-1.76,5.86-2.8,8.73-.48,1.45-1.02,2.89-1.58,4.31-.56,1.42-1.07,2.87-1.69,4.27l-1.84,4.2c-.63,1.39-1.33,2.76-1.99,4.14-.65,1.38-1.34,2.75-2.08,4.09l-2.16,4.05-2.3,3.97-1.15,1.99-1.23,1.94-2.49,3.85c-.85,1.27-1.74,2.51-2.62,3.76-1.71,2.53-3.59,4.95-5.43,7.38-.91,1.23-1.86,2.42-2.84,3.6l-2.89,3.55c-1.95,2.35-4.04,4.58-6.05,6.87l-6.32,6.61.78-3.74c1.66,4.38,4.07,8.68,6.76,12.74,2.69,4.08,5.75,7.94,9.12,11.44,3.38,3.48,7.12,6.64,11.16,8.78,1.01.51,2.04.99,3.07,1.3l.19.07.05.02h.02c.09.03-.1-.01-.07,0l.12.03.46.12c.24.04.36.08.66.12.51.08,1.07.13,1.65.16,2.3.13,4.78,0,7.24-.22,4.94-.47,9.95-1.16,14.93-2.01,4.98-.85,9.96-1.82,14.95-2.79,4.98-.99,9.95-2.07,14.93-3.12l14.93-3.29c-4.79,1.75-9.63,3.38-14.48,4.93-2.43.77-4.86,1.57-7.31,2.29l-7.35,2.16c-4.91,1.42-9.85,2.72-14.84,3.89-5,1.16-10.01,2.29-15.19,2.98-2.6.34-5.21.62-7.99.6-.7,0-1.41-.04-2.16-.12-.34-.02-.84-.11-1.23-.18l-.47-.1-.12-.03-.22-.06-.26-.07c-1.42-.36-2.75-.89-4.03-1.47-2.55-1.18-4.89-2.63-7.04-4.27-2.16-1.62-4.18-3.38-6.08-5.24-3.8-3.72-7.21-7.77-10.26-12.09-1.52-2.17-2.93-4.42-4.24-6.75-1.31-2.33-2.49-4.76-3.5-7.31l-.81-2.05,1.6-1.7,6.1-6.46c1.95-2.22,3.93-4.43,5.85-6.67l2.84-3.41c.96-1.13,1.9-2.27,2.78-3.45,1.8-2.34,3.64-4.66,5.32-7.08.85-1.2,1.73-2.39,2.57-3.61l2.44-3.69,1.24-1.84,1.17-1.88,2.34-3.75,2.2-3.84c.75-1.27,1.46-2.57,2.13-3.88.68-1.31,1.39-2.6,2.04-3.93l1.92-3.99c.67-1.31,1.22-2.68,1.84-4.02.62-1.34,1.2-2.7,1.74-4.07,1.14-2.72,2.14-5.5,3.14-8.29l1.38-4.21c.45-1.41.85-2.83,1.28-4.25.81-2.85,1.54-5.72,2.17-8.62.62-2.9,1.18-5.81,1.65-8.75.43-2.94.81-5.89,1.04-8.86.28-2.97.42-5.95.43-8.94.02-2.99-.07-5.99-.41-8.98Z"/>
    <g>
      <path class="cls-45" d="M214.75,252.44s55.82,46.29,99.8,25.64c26.73-16.1,39.83-54.08,39.83-54.08,0,0-.95-19.35-13.98-33.89,0,0-20.47,42.96-38.61,55.34-12.29,8.39-43.28,16.68-87.03,7Z"/>
      <path class="cls-47" d="M290.86,287.94c-38.66.63-76.48-30.35-78.07-31.67l-14.64-12.14,17.2,3.81c13.74,3.04,27.09,4.48,39.69,4.28,22.07-.36,37.74-5.82,45.04-10.8,17.08-11.65,37.04-53.26,37.24-53.68l2.21-4.64,3.2,3.57c14,15.61,15.16,36.17,15.2,37.04l.05,1.11-.35,1.02c-.56,1.61-13.95,39.74-41.57,56.38l-.29.16c-7.57,3.56-15.95,5.43-24.92,5.58ZM233.57,260.23c14.33,8.66,35.9,18.92,57.2,18.57,8.09-.13,15.62-1.8,22.39-4.95,22.63-13.73,35.22-44.52,37.54-50.64-.38-3.56-2.19-15.45-9.65-25.9-6.03,11.82-22.32,41.75-37.58,52.16-10.42,7.11-28.49,11.55-48.33,11.88-6.99.11-14.2-.26-21.56-1.11Z"/>
    </g>
    <g>
      <path class="cls-45" d="M597.82,239.26s-52.71,51.04-107.64,40.81c-35.21-11.24-60.81-45.79-60.81-45.79,0,0-4.28-18.83,6.67-34.96,0,0,35.47,38.17,59.76,47.2,16.47,6.12,54.4,9.13,102.02-7.25Z"/>
      <path class="cls-47" d="M502,285.68c-4.2-.15-8.37-.6-12.41-1.35l-.4-.1c-35.89-11.46-61.58-45.69-62.66-47.15l-.56-.75-.22-.95c-.19-.85-4.61-21.1,7.34-38.7l2.52-3.7,2.98,3.21c.35.38,35.14,37.62,58.36,46.25,6.92,2.57,16.82,4.2,27.87,4.59,15.5.54,40.56-1.07,71.93-11.87l17.28-5.95-13.8,13.36c-1.89,1.83-47,44.92-98.23,43.12ZM490.98,275.87c3.66.67,7.44,1.08,11.25,1.21,30.47,1.07,59.32-15.33,76.64-27.73-23.04,5.78-41.69,6.71-54.27,6.27h0c-11.73-.41-22.37-2.19-29.94-5-20.75-7.71-48.56-35.1-57.95-44.78-5.79,11.32-4.44,23.1-3.89,26.44,4,5.1,27.5,33.72,58.17,43.6Z"/>
    </g>
    <path class="cls-47" d="M298.43,403.22s.39-.08,1.14-.06c.75.03,1.85.17,3.22.54,1.35.4,2.98.99,4.72,1.91,1.74.93,3.65,2.07,5.58,3.54.96.74,1.97,1.5,2.93,2.37.99.84,2.02,1.72,2.98,2.71.49.48.99.98,1.5,1.47.48.52.97,1.04,1.46,1.57,1,1.05,1.99,2.15,2.95,3.31.95,1.09,2,2.52,2.75,3.18.88.77,1.88,1.26,3.05,1.49,2.35.45,5.25-.14,8.12-.97,2.87-.86,5.8-1.93,8.73-2.98,2.92-1.05,5.86-2.04,8.77-2.84,2.9-.83,5.78-1.48,8.56-1.83,2.77-.39,5.44-.52,7.89-.4,4.91.2,8.86,1.4,11.44,2.5,1.3.54,2.27,1.06,2.92,1.42.65.37.99.57.99.57,0,0-.38-.11-1.1-.31-.71-.2-1.77-.45-3.1-.73-1.34-.27-2.97-.5-4.84-.65-1.87-.11-3.98-.13-6.25.05-2.28.21-4.72.57-7.27,1.17-2.55.61-5.21,1.39-7.94,2.32-2.73.95-5.53,2.04-8.43,3.14-2.9,1.09-5.87,2.24-9.04,3.14-1.59.44-3.23.84-4.97,1.03-1.73.19-3.58.23-5.45-.24-1.86-.45-3.66-1.47-4.98-2.81-.17-.16-.34-.36-.51-.54l-.25-.28-.17-.22-.72-.95c-.44-.59-.87-1.18-1.31-1.76-.84-1.19-1.71-2.32-2.59-3.4-.43-.55-.86-1.09-1.29-1.62-.45-.51-.89-1.02-1.32-1.52-.43-.5-.86-1-1.28-1.49-.44-.47-.87-.93-1.29-1.39-.83-.94-1.71-1.75-2.55-2.56-.82-.82-1.68-1.5-2.46-2.22-.82-.66-1.6-1.29-2.36-1.83-1.53-1.09-2.94-1.93-4.16-2.52-1.23-.56-2.24-.93-2.95-1.09-.71-.17-1.11-.18-1.11-.18Z"/>
    <g>
      <g>
        <path class="cls-47" d="M496.33,610.8s-5.5-1.1-14.66-2.69c-24.91-4.32-76.85-12.31-117.42-11.54-10.18.22-19.6.95-27.75,2.44,1.4-7.87,2.54-15.49,3.42-22.86,4.2-34.38,3.34-62.95,1.55-82.34-1.61-17.59-3.97-27.65-3.97-27.65,0,0,99.81-26.88,127.52-.79,6.89,6.51,12.27,17.07,16.46,29.66,3.6,10.82,6.33,23.12,8.39,35.55,2.95,17.59,4.54,35.45,5.39,49.86.78,12.82.98,22.88,1.03,27.55.02,1.79.04,2.79.04,2.79Z"/>
        <path class="cls-47" d="M332.4,603.14l.84-4.7c1.38-7.77,2.52-15.39,3.39-22.67,4.27-34.94,3.2-63.68,1.54-81.64-1.57-17.11-3.87-27.1-3.89-27.2l-.73-3.12,3.1-.83c4.15-1.12,101.93-27.05,130.65,0,6.78,6.41,12.61,16.85,17.34,31.03,3.37,10.12,6.23,22.25,8.51,36.06,2.53,15.09,4.36,31.99,5.43,50.2.78,12.83.99,22.87,1.04,27.71l.11,6.89-4.04-.81s-5.49-1.1-14.57-2.67c-26.59-4.61-77.11-12.24-116.79-11.49-10.8.23-19.71,1.01-27.21,2.39l-4.7.86ZM401.5,594.48c30.77,2.27,61.79,7.08,80.74,10.37,4.54.79,8.19,1.45,10.72,1.93-.07-5.14-.3-14.46-1.01-26.11-1.06-17.99-2.86-34.65-5.35-49.51-2.23-13.48-5.01-25.27-8.26-35.05-4.38-13.13-9.62-22.65-15.59-28.3-23.44-22.08-104.6-3.36-121.35.8.83,4.3,2.27,12.83,3.38,24.91,1.68,18.28,2.78,47.53-1.56,83.05-.71,5.95-1.6,12.13-2.65,18.43,6.8-.97,14.58-1.54,23.62-1.74,11.81-.22,24.55.28,37.32,1.22Z"/>
      </g>
      <g>
        <path class="cls-2" d="M496.26,611.81l-14.59-3.7c-24.91-4.32-76.85-12.31-117.42-11.54,9.15-39.42,50.95-83.49,125.62-65.97,2.95,17.59,4.54,35.45,5.39,49.86.78,12.82.94,26.68.99,31.35Z"/>
        <path class="cls-47" d="M443.93,526.45s-15.81,19-23.04,40.04c23.37-29.02,36.24-39.06,36.24-39.06l-13.2-.97Z"/>
        <path class="cls-47" d="M499.62,616.09l-18.76-4.76c-26.34-4.56-76.86-12.19-116.54-11.44l-4.26.08.96-4.15c5.48-23.58,20.66-44.59,41.65-57.64,24.03-14.94,54.45-18.68,87.96-10.82l2.15.5.36,2.18c2.53,15.1,4.36,31.99,5.43,50.21.53,8.76.87,19.37,1,31.51l.05,4.31ZM401.5,594.48c30.77,2.27,61.79,7.08,80.74,10.37l10.65,2.69c-.16-10.24-.47-19.27-.93-26.88-1.01-17.11-2.69-33.02-4.99-47.32-30.9-6.8-58.79-3.19-80.79,10.48-18.28,11.36-31.81,29.19-37.62,49.39,10.55-.04,21.73.45,32.95,1.27Z"/>
      </g>
      <g>
        <path class="cls-38" d="M481.49,495.04c-11.23-4.41-26.6-8.97-44.01-10.25-29.68-2.19-78.92,5.95-96.01,9.02-1.61-17.59-3.97-27.65-3.97-27.65,0,0,99.81-26.88,127.52-.79,6.89,6.51,12.27,17.07,16.46,29.66Z"/>
        <path class="cls-47" d="M338.5,497.72l-.33-3.6c-1.57-17.11-3.87-27.1-3.89-27.2l-.73-3.12,3.1-.83c4.15-1.12,101.93-27.05,130.65,0,6.78,6.41,12.61,16.85,17.34,31.03l2.24,6.73-6.6-2.59c-9.82-3.85-25.25-8.72-43.04-10.03-29.82-2.2-80.39,6.32-95.18,8.98l-3.56.64ZM341.4,468.6c.74,3.86,1.98,11.14,3.03,21.32,18.32-3.19,64.79-10.54,93.3-8.44,14.92,1.1,28.24,4.58,38.22,7.99-3.85-9.76-8.28-17.03-13.2-21.68-23.44-22.08-104.6-3.36-121.35.8Z"/>
      </g>
    </g>
    <path class="cls-47" d="M338.68,319.93s-62.79-11.32-97.2.82c-6.82,13.68-8.21,15.02-8.21,15.02,0,0,79.52-13.36,95.47-14.03-36.54,13.46-72.92,36.58-72.92,36.58l-2.9,18.68,85.77-57.07Z"/>
    <path class="cls-47" d="M454.49,319.93s68.93-12.48,106.64.53c7.43,14.77,8.96,16.22,8.96,16.22,0,0-87.2-14.16-104.69-14.83,40.03,14.42,79.87,39.31,79.87,39.31l3.11,20.2-93.89-61.44Z"/>
    <g>
      <g>
        <path class="cls-39" d="M533.61,370.12s8.92,30.67,5.59,48.63c-3.33,17.96,21.27,34.92,33.43,14.78,16.67-27.62-39.02-63.41-39.02-63.41Z"/>
        <ellipse class="cls-38" cx="563.9" cy="421.21" rx="9.23" ry="13.74"/>
        <path class="cls-27" d="M558.3,445.64c-2.43,0-4.77-.48-6.86-1.27-9.21-3.5-17.42-14.24-15.21-26.16,3.16-17.05-5.43-46.93-5.52-47.23l-2.25-7.75,6.79,4.37c2.37,1.53,57.95,37.72,39.97,67.51-4.69,7.76-11.06,10.54-16.92,10.54ZM538.59,377.33c2.47,10.54,5.97,29.13,3.58,41.97-1.61,8.7,4.67,16.84,11.41,19.41,6.41,2.43,12.41-.02,16.46-6.74,11.69-19.36-17.71-44.4-31.45-54.64Z"/>
      </g>
      <g>
        <path class="cls-39" d="M585.07,447.97s1.65,21.04-2.92,32.2,9.07,25.44,19.64,14.05c14.49-15.62-16.72-46.25-16.72-46.25Z"/>
        <ellipse class="cls-38" cx="596" cy="487.94" rx="5.54" ry="8.26"/>
        <path class="cls-27" d="M593.34,501.42c-2.72,0-5.24-.87-7.27-2.17-5.84-3.73-9.95-12.31-6.72-20.22,4.24-10.37,2.72-30.62,2.7-30.82l-.63-8.05,5.76,5.65c1.36,1.33,33.12,32.89,16.82,50.47-3.46,3.73-7.22,5.14-10.66,5.14ZM588.38,456.04c.04,7.39-.5,18.09-3.44,25.28-2.01,4.92.7,10.49,4.37,12.83,1.97,1.26,5.93,2.68,10.25-1.98,8.31-8.96-2.49-25.84-11.18-36.13Z"/>
      </g>
      <g>
        <path class="cls-39" d="M584.26,389.52s11.05,20.16,11.51,33.3c.46,13.14,20.4,21.22,25.8,5.17,7.41-22.01-37.31-38.47-37.31-38.47Z"/>
        <ellipse class="cls-38" cx="613.17" cy="425.05" rx="7.32" ry="10.9"/>
        <path class="cls-27" d="M610.41,439.91c-.74,0-1.47-.06-2.18-.16-7.36-1.07-15.17-7.66-15.49-16.82-.43-12.26-11.03-31.76-11.14-31.95l-3.88-7.08,7.57,2.79c1.94.71,47.38,17.76,39.13,42.27-2.73,8.12-8.69,10.95-14.02,10.95ZM590.6,395.49c3.38,7.29,7.88,18.55,8.19,27.23.21,5.93,5.52,10.35,10.32,11.05,2.61.38,7.32,0,9.59-6.74,4.38-13.03-14.74-25.26-28.09-31.54Z"/>
      </g>
    </g>
    <g>
      <g>
        <path class="cls-39" d="M258.08,367.81s-8.92,30.67-5.59,48.63c3.33,17.96-21.27,34.92-33.43,14.78-16.67-27.62,39.02-63.41,39.02-63.41Z"/>
        <ellipse class="cls-38" cx="227.78" cy="418.89" rx="9.23" ry="13.74"/>
        <path class="cls-27" d="M216.47,432.78c-17.98-29.8,37.6-65.99,39.97-67.51l6.79-4.37-2.25,7.75c-.09.3-8.68,30.18-5.52,47.23,2.21,11.92-6,22.66-15.21,26.16-2.1.8-4.44,1.27-6.86,1.27-5.86,0-12.24-2.78-16.92-10.54ZM221.65,429.65c4.05,6.72,10.05,9.17,16.46,6.74,6.74-2.56,13.02-10.71,11.41-19.41-2.38-12.85,1.11-31.43,3.58-41.97-13.74,10.23-43.14,35.27-31.45,54.64Z"/>
      </g>
      <g>
        <path class="cls-39" d="M206.62,445.66s-1.65,21.04,2.92,32.2c4.57,11.17-9.07,25.44-19.64,14.05-14.49-15.62,16.72-46.25,16.72-46.25Z"/>
        <ellipse class="cls-38" cx="195.69" cy="485.62" rx="5.54" ry="8.26"/>
        <path class="cls-27" d="M187.69,493.97c-16.31-17.58,15.46-49.13,16.82-50.47l5.76-5.65-.63,8.05c-.02.2-1.53,20.46,2.7,30.82,3.23,7.91-.88,16.49-6.72,20.22-2.03,1.3-4.56,2.17-7.27,2.17-3.45,0-7.2-1.41-10.66-5.14ZM192.12,489.85c4.32,4.66,8.27,3.24,10.25,1.98,3.67-2.34,6.38-7.91,4.37-12.83-2.94-7.19-3.48-17.89-3.44-25.28-8.69,10.29-19.49,27.17-11.18,36.13Z"/>
      </g>
      <g>
        <path class="cls-39" d="M207.43,387.21s-11.05,20.16-11.51,33.3c-.46,13.14-20.4,21.22-25.8,5.17-7.41-22.01,37.31-38.47,37.31-38.47Z"/>
        <ellipse class="cls-38" cx="178.52" cy="422.74" rx="7.32" ry="10.9"/>
        <path class="cls-27" d="M167.26,426.64c-8.25-24.51,37.19-41.56,39.13-42.27l7.57-2.79-3.88,7.08c-.11.2-10.71,19.69-11.14,31.95-.32,9.16-8.13,15.75-15.49,16.82-.71.1-1.44.16-2.18.16-5.33,0-11.29-2.84-14.02-10.95ZM172.99,424.71c2.27,6.75,6.98,7.11,9.59,6.74,4.8-.7,10.11-5.12,10.32-11.05.3-8.68,4.81-19.94,8.19-27.23-13.36,6.28-32.48,18.51-28.09,31.54Z"/>
      </g>
    </g>
  </g>
</svg>